<svg xmlns="http://www.w3.org/2000/svg" width="70" height="193"><defs><style>.cls-1{fill:none;stroke:#000;stroke-linecap:round;stroke-linejoin:round}.cls-3{fill:#00a199}</style></defs><g id="レイヤー_2" data-name="レイヤー 2"><g id="レイヤー_1-2" data-name="レイヤー 1"><path class="cls-1" d="M34.92.5C40.44 1.66 42 5.38 42 5.38"/><path d="M65.64 192.31H70l-.33-6.75h-.69l.06-.34s0-20.43-3.36-35.38c-1.82-8.18-5-17.46-7.25-30l2.4-2.09.11.52a3.55 3.55 0 0 1-1.83 1 2.71 2.71 0 0 0 2.24 1.09v.1c5.49 1 6.65-4.82 2.51-7.61 0 0 1.53-19.63-.49-32.76l2.77.06c-.62-5.79-3.87-30-18.87-31.81a16.65 16.65 0 0 0 6-10.42c4.82 1.64 6.46-4.51 5.23-6.56a2.6 2.6 0 0 0-2.24-1.25v-.06c7.06-17.45-4.5-26.67-11.69-23.71a26.19 26.19 0 0 0-3 .83l-2.78-1.24c-9.88-7.32-29.33 1-22.12 24l.61 1.82a2.69 2.69 0 0 0-4.81.95c-.64 2.34 1.93 7 5.13 5.43l.08-.17a12.76 12.76 0 0 0 6.88 10.21 15.56 15.56 0 0 1 1.78 1.11l-4.12.24C7.4 50 6.09 79.1 6.09 79.1l2.09.23-.18.57c-4.65 12.46-.52 32.93-.52 32.93-4.13 2.79-3 8.6 2.51 7.61v-.1a2.69 2.69 0 0 0 2.23-1.09 3.47 3.47 0 0 1-1.82-1l.1-.52 2.41 2.09c-2.21 12.57-5.44 21.85-7.26 30-3.32 14.95-3.36 35.38-3.36 35.38l.08.23-1.17-.12-.14 7H6.3l-1-6.56-1-.1.16-.48c.54-27.92 5.22-41.17 8.3-50.94 1.38-4.38 3.42-15.06 5-26.25h1.11l-1.2 9.66C16 127.9 17.31 164 21.86 182.16l.06.8h2.32l-.51.62s-2.69 5.8-2.69 8.7a72.06 72.06 0 0 0 11 .2v-1.45a24 24 0 0 0-.82-5.79l-1-2.28H32s-2.48-44.08 4.14-62.5c6.63 18.42 3.32 62.5 3.32 62.5h1.76l-.94 2.28a24 24 0 0 0-.82 5.79v1.45a72.06 72.06 0 0 0 11-.2c0-2.9-2.69-8.7-2.69-8.7l-.42-.62h.63l1.31.29.35-1.12c4.55-18.21 6-56.7 2.9-71.88l-.64-2.62h1.64c1.54 11.31 3.61 22.17 5 26.59 3.08 9.79 7.76 23 8.31 50.94l.07.39H66zm-7.71-75.5l-.15-1c.08-.22.16-.46.26-.71.52-1.4 1-2.29 1.92-1.65l.32 1.61zm-46.63-3.35c.9-.64 1.4.25 1.93 1.65.09.25.18.49.25.71l-.15 1-2.33-1.75zm3-2.83l-.06.42a3.8 3.8 0 0 0-2.33-.55l.11-.57s-1.26-14.08 2.93-26.54l.25-.39h.93c.46 4.94-.54 17.19-1.86 27.63zM55.14 83l.54-.07.66.43c4.2 12.46 2.94 26.54 2.94 26.54l.11.57a3.8 3.8 0 0 0-2.33.55l-.07-.42c-1.32-10.41-2.31-22.66-1.85-27.6z" fill="#fff"/><path class="cls-3" d="M21.23 79.05c-1.21-1.81-6-2.9-5.83.2s1.21 3.41 1.21 3.41c.8 8.24-1.61 24.12-2.82 32-.1.7-.26 1.52-.46 2.44L10 114l-.4 2.21 3.27 2.87c-2.45 10.12-8.25 28.45-9.1 36.31-1 9.24-2.41 35.37-2.41 35.37l3.21.2c0-7 1-35.39 2-39.79 1.61-6.83 7.64-29.13 8.64-34s4.22-33.75 4.22-33.75c1.8.05 3.01-2.57 1.8-4.37zM59.85 128c-.66-2-1.53-4.91-2.42-8.35l3.65-3.49-.7-1.77-3.68 2.33C54.18 106.17 51.84 92 53.66 82c1.59-1.41 3.36-5 .71-5.3s-5.83.18-4.95 2.83A9.57 9.57 0 0 0 51 82.91a275.38 275.38 0 0 0 3.36 33c1.24 7.25 6 21.55 8.48 32.15s2.65 42.4 2.65 42.4l2.82.17c.69-10.92-3.87-46.95-8.46-62.63z"/><path d="M49.8 112.73c-2.41-4.55-22.69-7.5-26-3.48-8.21 10-6.77 38.45-5 49.77 1.5 9.54 1.24 21.76 6.06 21s4.56-8 3.49-14.2-3-45.06 7.45-43.45S37.29 178.65 42 180c8.6 2.39 14-52.26 7.8-67.27z" fill="#0068b6"/><path class="cls-3" d="M39 6.68c-4.67-4.68-23.84-4-22.69 17.06.64 5.39 10.56-8.23 10.56-8.23-4.4 11.56 2.21 6.07 7.73-1.11-6.48 14 8.89 1.6 9.44.22 1.48 8.73 7.71 18.76 11.3 13S54.75-1 39 6.68z"/><circle cx="30.19" cy="27.25" r="1.28"/><circle cx="41.98" cy="27.04" r="1.28"/><path class="cls-1" d="M27.27 11.09a53.54 53.54 0 0 0-3.41 14.49m13-13.85c-3.2 6-9.8 12.36-9.8 12.36m17.05-11.3A41.27 41.27 0 0 1 33.45 23M42 13.22c3 8.31 5.54 10.66 5.54 10.66m-.02-6.82a27.89 27.89 0 0 0 2.77 7M38.26 5.25c-9.88-7.32-29.32 1-22.11 24M44 5.63c7.19-2.95 18.75 6.26 11.69 23.72"/><path class="cls-1" d="M35.37 64.12a35.44 35.44 0 0 1 7-7.94 7.14 7.14 0 0 1 3-7.48 17.15 17.15 0 0 0 7.38-11.48c4.81 1.64 6.45-4.51 5.22-6.56-.94-1.57-3.48-1.94-4.82.51h-.11a65.66 65.66 0 0 0-1.66-10.73m-32.85.88A66.34 66.34 0 0 0 17 31.3a2.71 2.71 0 0 0-5 .68c-.63 2.35 1.93 7 5.13 5.43l.09-.16A12.74 12.74 0 0 0 24 47.47c7.1 3.86 6.38 9.6 6.38 9.6m3.92-30.85c.22 2.35-.64 9-.64 9l2.14-.64M31.86 37c1.81 2.09 6 1.79 7.85.15"/><path class="cls-1" d="M27.91 50.85l-.65 1.67c-.86 1.71-1.4 12.4-1.4 12.4 1.91-4.9 5-5.11 5-5.11L33.29 62M43.9 50.85L45 53a59.22 59.22 0 0 1 1.49 11.93 13.61 13.61 0 0 0-4.73-5l-2.81 1.4m-8.41-4.08c1.66 1.24 4.82 6 4.82 6M21.69 48.82C6.87 49.36 5.56 78.41 5.56 78.41l8.9 1m32.25-31.77c15 1.85 18.25 26 18.87 31.81l-9.77-.23m-37.99 28.09l33.51-.36"/><path class="cls-1" d="M54.61 82.35l-4.14.41c-1.8-.88-3.1-4.14-1.66-5.17s6.42-1.25 6.42-1.25l.62 4.56m-4.97 3.72C51.3 99.94 55.61 126 58 133.54c3.08 9.8 7.76 23 8.31 51M62.79 79.22c4.65 12.46.51 32.93.51 32.93 4.14 2.79 3 8.6-2.51 7.61m-4.98-37.05c4.2 12.45 2.94 26.54 2.94 26.54"/><path class="cls-1" d="M63.92 117.32a3.1 3.1 0 0 1-5.38 1.25c3.31-.83 2.67-3.84 1.42-5.29s-1.83-.51-2.45 1.15-.72 2.66-1.87 1.44c-2.27-2.06-.16-7.41 4.66-5.75m-8.3-.52c3.06 15.18 1.64 53.67-2.91 71.88m-26.09.83h8.49s-2.49-44.08 4.14-62.5c6.62 18.42 3.31 62.5 3.31 62.5h8.48M17.1 116.94c-1.59 10.28-.32 46.33 4.23 64.54m18.42 3.11a24 24 0 0 0-.82 5.79v1.45a73.07 73.07 0 0 0 11-.21c0-2.89-2.69-8.69-2.69-8.69m-16.59 1.66a24.05 24.05 0 0 1 .83 5.79v1.45a73 73 0 0 1-11-.21c0-2.89 2.69-8.69 2.69-8.69"/><path d="M23.43 32c-1.32.21-2.77 1.41-2.55 2.73a2.68 2.68 0 0 0 3.12 1.8c1.59-.29 2.8-2.13 2.28-3.37A2.65 2.65 0 0 0 23.43 32zm20.68 1.16a2 2 0 0 0-1.37 1.54 2.12 2.12 0 1 0 4.19.55 2.31 2.31 0 0 0-2.82-2.09z" fill="#ecb0c4"/><path class="cls-1" d="M55.65 117.43l4.77-3.54m-3.28 5.87l3.81-3.31m4.5 68.42h3.65l.33 6.76h-4.32l.34-6.76zm-7.59-65.76c2.21 12.58 5.43 21.86 7.25 30.05 3.33 15 3.37 35.38 3.37 35.38M54.61 82.35c-.46 4.91.53 17.16 1.85 27.59M15.6 82.35l4.14.41c1.8-.88 3.1-4.14 1.65-5.17S15 76.34 15 76.34l-.62 4.56m4.94 3.72c-.41 15.32-4.72 41.42-7.08 48.92-3.09 9.8-7.76 23-8.31 51M7.42 79.22c-4.65 12.46-.51 32.93-.51 32.93-4.14 2.79-3 8.6 2.5 7.61m4.99-37.05c-4.2 12.45-2.94 26.54-2.94 26.54"/><path class="cls-1" d="M6.28 117.32a3.11 3.11 0 0 0 5.39 1.25c-3.32-.83-2.67-3.84-1.43-5.29s1.84-.51 2.46 1.15.72 2.66 1.86 1.44c2.28-2.06.17-7.41-4.65-5.75m4.65 7.31l-4.77-3.54m3.28 5.87l-3.81-3.31m3.09 2.66c-2.21 12.58-5.44 21.89-7.26 30.05-3.32 15-3.36 35.38-3.36 35.38M15.6 82.35c.46 4.91-.53 17.16-1.86 27.59M.64 184.65l4.13.42 1 6.56H.5l.14-6.98z"/></g></g></svg>