<svg xmlns="http://www.w3.org/2000/svg" width="46.73" height="205.15"><defs><style>.cls-4{fill:none;stroke:#000;stroke-linecap:round;stroke-linejoin:round}</style></defs><g id="レイヤー_2" data-name="レイヤー 2"><g id="レイヤー_1-2" data-name="レイヤー 1"><path d="M34.15 58.33l-1.26-2-2 .08A13.59 13.59 0 0 1 34 50.54 23.25 23.25 0 0 0 40.23 37c2.81.7 6.74-3.74 5.6-6.73-.78-2.07-2.52-2.89-4-2.4l.4-.88a23.05 23.05 0 0 0-.44-14.67c-1.33-3.78-5.33-8.44-8.22-6.89l-.77.19a5.28 5.28 0 0 0-.56-1.3C29.73-.13 23-.59 19.83 1.43l-.06.14C14.35 1.51 7.56 4.35 3.58 17c-1.9 5-1.11 11.11.22 13.55l.05.16a2.57 2.57 0 0 0-3.22 1.45c-1.49 3.13 2.51 8 5.78 6.08 1.54 6.14 4.4 7.86 7.15 11.88a22.91 22.91 0 0 1 3.16 6.82L16 57s-1.11 1.52-2.52 3.27h-.23a20.37 20.37 0 0 0-3.52 4.18l-.1.09C1.47 77.34 3.79 100 3.79 100l3.78 7-.11.09-1 18.64 4.58.08-.11.7 4.85 70.71v.19c-2.22-.46-4.84.78-7.28 6.72 2.79.16 17.32.27 17.32.27l-1.34-7h1.11l-.45-69.78 2.45 69.55 1.08.1-.06.16-1.34 7s14.53-.11 17.32-.27c-2.09-5.09-4.32-6.73-6.32-6.81v-.22l1-71.37c2.6-.23 4.69-.48 4.69-.48l-1.56-19.07-.15-.1 3.54-6.42s.02-29.3-11.64-41.36z" fill="#fff"/><path d="M37.79 142.75c-.16-3-.55-6.07-.47-9.11 0-2 .79-5.54-1.28-6.88-1-.65-1.75-.28-2.77-.18a10 10 0 0 1-3.18 0c-1-.56-13.06.08-15 .78-2.26.84-2.57 3.25-2.09 5.34a52.45 52.45 0 0 1 1.56 6.58c.32 2.95.53 5.91.72 8.87.35 5.24.36 10.59.37 15.85s.37 10.82.62 16.2a130.78 130.78 0 0 0 1 13.86c.25 1.59.8 3.43 2.7 3.57a3.92 3.92 0 0 0 3.78-2.5c.82-2.21.55-4.89.55-7.2 0-2.8.06-5.61 0-8.41-.11-5.34-.5-10.75-.11-16.09s.4-10.83.34-16.25c0-2.81-.31-5.69-.46-8.5q-.08-1.6-.21-3.21c-.1-1.27-.55-3-.19-4.25.62-2.19 3.41 0 4.07 1.17 1.26 2.3.63 6.06.58 8.59s.16 4.82.23 7.24c.07 2.61 0 5.22 0 7.82s.25 5.21.21 7.84v8.77c0 5.18 0 10.42.31 15.58.19 2.88-.32 8.33 3.46 9.19 5 1.14 5-6.12 5-9.17 0-6.2-.2-12.37-.2-18.57 0-5.85.31-11.71.39-17.56.08-3.12.22-6.28.07-9.37zm3.86-29.66a10 10 0 0 1-.73-2.8c.08-1.94 1.41-4.25 2.29-5.94a17.74 17.74 0 0 0 1-11.42c-1-4.3-1.48-8.65-2.31-13-.37-1.92-.85-3.82-1.12-5.76A44.15 44.15 0 0 0 39 67.68a22 22 0 0 0-2.18-4.88c-.73-1.22-2-2.83-3.59-2.26s-1.84 2.8-2 4.23c-.32 2.52-.49 5.07-.93 7.56-.88 5-1.25 10-2.62 14.85-.63 2.23-1.57 4.43-2.29 6.65-.34 1.08-.55 2.21-1 3.27l-.21.5c-.11-.44-.26-.94-.28-1-1.51-4.91-2.53-10-3.8-15-.65-2.54-1.51-5.06-2.06-7.62s-1.35-5-1.77-7.47c.23-.76.45-1.53.62-2.3.49-2.15-2.84-3-3.34-.81-.06.26-.12.53-.19.8a1.37 1.37 0 0 0-.66 1.44c0 .17.05.34.07.51-1.06 3.24-2.52 6.36-3.45 9.63a71.9 71.9 0 0 0-2.1 13.61c-.34 3.87-.3 8.84 2.13 12.09 2.9 3.89 1.08 8.66.7 13.07a16.07 16.07 0 0 0 .53 4.52c.32 1.71.77 3.13 2.5 4 2.19 1 7.35.53 5.67-3-.33-.69-.94-1-.58-1.8a7.63 7.63 0 0 1 1.76-2.09c2-1.88 5-.68 7.42-.25 1 .18 2 .45 3.06.72a11.35 11.35 0 0 1 1.39.36c.16.06.24 0 .28 0a1 1 0 0 0 .05.2c.48 1.54-1.42 3.09-.85 4.78a2.93 2.93 0 0 0 3.17 1.94c1.85 0 3.59.23 5.43-.36 1.22-.38 3-1.5 3.32-2.83s-.47-3.33-.84-4.64c-.29-1.05-.45-2.03-.71-3.01z" fill="#0068b6"/><path d="M25.26 80.15c0-3.53-.26-6.91-.54-10.43-.07-1-.24-1.85-.27-2.75a1 1 0 0 0 .1-.66 1.37 1.37 0 0 0-.07-.24 7.27 7.27 0 0 1 .12-.75c.2-.81.17-2-.7-2.51a1.47 1.47 0 0 0-1.9.65c-.64 1.11 0 1.79.47 2.63a2.48 2.48 0 0 0-.14.92 9.9 9.9 0 0 0 .22 1.21.89.89 0 0 0-.11.37c-.19 1.87-.62 3.73-.67 5.61a52.79 52.79 0 0 0 .66 5.86c.28 3.28-.74 7.15.65 10.24a1 1 0 0 0 1.72-.25c.64-3.2.46-6.65.46-9.9zM39.19 9.73c-2.09-2.84-5-5.62-8.75-5.29a1 1 0 0 0-.58.25 7.25 7.25 0 0 0-3.67-3.13 4.09 4.09 0 0 0-2.76-.05c-1 .33-1.67 1.29-2.56 1.56a11 11 0 0 1-1.28 0 6.58 6.58 0 0 0-1.44.41 14.76 14.76 0 0 0-3.79 2 21.36 21.36 0 0 0-5.13 5.72 14.67 14.67 0 0 0-2.48 6c-.24 1.92-.9 4.92 0 6.71 2.21 4.42 9.44-.06 11.65-2.25s4.16-4.55 6.16-6.87a99.92 99.92 0 0 1 3.23-3.6c.7-.73 1.38-1.47 2-2.25.09-.12.19-.26.28-.4A36.89 36.89 0 0 0 31.65 13a24.89 24.89 0 0 0 3.44 5.9c1.26 1.55 6.54 6.1 7.49 2 .92-3.85-1.16-8.13-3.39-11.17z" fill="#00a199"/><circle cx="16.88" cy="27.43" r="1.28"/><circle cx="29.1" cy="26.32" r="1.28"/><path class="cls-4" d="M22.21 25.65l-.66 8.22 3.11-.67M18 36.32c2.67 5.11 8 4.88 11.11.44M31 57.08a13.36 13.36 0 0 1 3.2-6.32 23.25 23.25 0 0 0 6.21-13.55c2.81.71 6.74-3.73 5.61-6.72-1.02-2.76-3.78-3.31-5.3-1.49a29.88 29.88 0 0 1 0-3.34M5.45 26.85a28.33 28.33 0 0 0 .22 5.55c-1.25-2.29-3.88-2.08-4.85 0-1.49 3.13 2.52 8 5.78 6.09 1.54 6.14 4.4 7.86 7.15 11.88A23.13 23.13 0 0 1 17 57.52m10.77-44.76c-2.89 8-12 12.67-16.89 14M19.77 11C14.66 24.09 6.22 28.54 3.33 28.76m27.33-16.89c5.11 9.56 10.44 14 10.44 14M32.44 4.54C29.93.09 23.14-.37 20 1.65"/><path class="cls-4" d="M27.1 3.43c-4-1.78-17.1-6-23.33 13.77-1.89 5-1.11 11.12.22 13.56M33.77 5.65c2.89-1.56 6.89 3.11 8.22 6.89a23 23 0 0 1 .45 14.66M17.63 65.23l5.55-3.51 7.11 3.83"/><path class="cls-4" d="M20.31 63.55l1.53 2.97-.87 15.32m4.94-18.54l-1.29 3.12 1.84 16.36"/><path class="cls-4" d="M32.08 56.66l-8.31 40.1-7.63-39.57 7.04 4.53 8.9-5.06z"/><path class="cls-4" d="M16.14 57.19a68.85 68.85 0 0 1-6.37 7.57L14 67.43l-4.23 2.22 14 27.11"/><path class="cls-4" d="M33.48 57.52l4.07 6.13-4.67 1.33 4.45 3.56-13.56 28.22m.23 4.89a2.12 2.12 0 0 0-2 2 2.08 2.08 0 0 0 2.23 1.77 2.17 2.17 0 0 0 2-2.44 2.1 2.1 0 0 0-2.23-1.33zm-12.9 25.11l4.85 70.71m4.42 3.16c-2.12-2.24-7.22-7.15-11.69 3.75 2.79.16 17.32.27 17.32.27l-1.34-7m8.42 2.98c2.12-2.24 7.22-7.15 11.69 3.75-2.79.16-17.32.27-17.32.27l1.34-7"/><path class="cls-4" d="M33.72 57.93C46 69.58 46 99.9 46 99.9l-11.23 20.35-10.11-5.35 11.15-17.34 2-19.9"/><path class="cls-4" d="M12.87 61.12C1.2 71.77 4 100.16 4 100.16l10.69 20.09 10.11-5.35-10.38-18.13-2.35-16.44M26.12 116a18.51 18.51 0 0 0-2 .73m4.23 7.46a5.56 5.56 0 0 0 1 1.78c1.33 1.11 14.8-.48 14.8-.48l-1.55-19.07"/><path class="cls-4" d="M7.65 107.34l-1.02 18.63 12.87.24m4.18-9.45l1.06 1.14c-4.22 4.42-5 7.07-5 7.07s1.6 1.51 5.21.51a8 8 0 0 0 5.94-7m-12.51.04a13.65 13.65 0 0 0 1.81 4.74m-.41 1.74a30 30 0 0 0 5-3.66m-3.86 4.2a10.26 10.26 0 0 0 5.36-3.17m-2.19 3.25c1.79-.41 3.82-2.68 3.82-2.68m-3.9-7.15l.89.4"/><path d="M35 31.85a3.76 3.76 0 0 0-2.9-1c-1.23 0-2.52.53-2.61 1.94s1 1.66 2 1.86c1.22.22 2.35.45 3.29-.6a1.28 1.28 0 0 0 .31-.6 1.18 1.18 0 0 0-.09-1.6zm-20.77.58a2.89 2.89 0 0 0-2.89-.37 1.84 1.84 0 0 0-1 2.52c.54 1 1.67.82 2.61.78a.91.91 0 0 0 .33.28 1.1 1.1 0 0 0 1.49-.44 2.18 2.18 0 0 0-.54-2.77z" fill="#ecb0c4"/><path class="cls-4" d="M38.45 197.35l1.03-71.38M17.91 198l7.86-.36-.44-69.77 2.44 69.55 8.4.73"/></g></g></svg>