<svg xmlns="http://www.w3.org/2000/svg" width="117" height="165"><defs><style>.cls-1{fill:#fff}.cls-2{fill:#00a199}.cls-4{fill:none;stroke:#000;stroke-linecap:round;stroke-linejoin:round}</style></defs><g id="レイヤー_2" data-name="レイヤー 2"><g id="レイヤー_1-2" data-name="レイヤー 1"><path class="cls-1" d="M45.21 151.26c-3-.41-5.9 3.15-6.43 6.43-.39 2.37.25 5.89 2.68 7 2.84 1.27 7-1.34 8-4.82s-1.15-8.18-4.25-8.61z"/><path class="cls-1" d="M104.93 42.41c-2.4.48-2.88 1.92-3.84 5l-2.88 9.84v.06L75.3 53.73l-4.39-.52.13-.15C72.23 51.67 80 45.2 80 45.2c3.14 1.7 7.22-1.33 7.24-4.32a2.7 2.7 0 0 0-2.54-2.63l3-2.94C95 29.74 85.29 15.46 76.82 6.5s-14-5.08-14.53.49l-.6 1.13s-5 .6-6.21 1.24c-8.38 3-8 15.23-6.76 18.37l.09.11c-2.45 6.16-3.33 11.7-2.25 14.32 1.91 4.67 6.9 7.29 8.74 12.19l-5.43 6.34a6.58 6.58 0 0 1 2.92-1c-4 4.28-14 14.35-21.19 17.72a11.63 11.63 0 0 0-3.43-.31c-5.14.51-7.1 3.21-7.27 5.71-.74.3-1.35.59-1.75.77-5.48 2.93-10.85 10-15.39 22.76-6.5 18.19.37 27.1 2.59 28.77a6.39 6.39 0 0 0 2.46.58l-4.77 2 27.83 15.6L50.11 143l-13.57-4.62 2.23-14 13.3 4.78c-.8 11.37 2.4 23.29 10.28 26.83 8.57 3.85 21.61-2.73 30-13.49a37.58 37.58 0 0 0 4.75-7.15 37 37 0 0 0 3.61-19.78c-.67-10.38-5-20.32-12.53-23.24l.79-1.9 13.65-32.34-1-.15.61-1.57 4.08-10.56 10.8-2.4.24-2.88s-10.02 1.4-12.42 1.88zm-68 60.27l-4.62.3c.3-1.83.55-3.73.73-5.71a30.54 30.54 0 0 0-1.2-9.75l13.06-6.09z"/><path class="cls-2" d="M5.09 103.78c2-5.71 5.91-12.24 10.47-16.26L15 85.25a42 42 0 0 0-11.74 16.43C-.69 111.75-1 126.41 4.91 133.61l1.57-2.06c-4.61-6.16-4.48-18.86-1.39-27.77zm73.69 46.87c8.5 1.77 17.62-10 20.71-19.57 3.28-10.2 2-24.91-5.39-28.07C85.94 99.5 71 110.44 68 124c-2.37 10.76 2.43 24.92 10.78 26.65zm-7.94-27.79c3.07-11.06 15.43-19.7 21.84-16.73 6 2.77 6.14 15.35 3.69 23.54s-9.73 19-16.45 17.86C73 146.42 68 133.21 70.84 122.86z"/><path class="cls-2" d="M88.87 90.39c-13-4.54-30.82 11-35.72 27.83-4.38 15 .3 35.54 12.08 39.66 13.11 4.58 32.32-12.07 36.5-30.47 3.15-13.84-1.23-32.95-12.86-37.02zm10 35.45c-3.58 17-21.36 31.9-32.31 27.84-9.67-3.6-13-21.61-9.19-34.67 4.22-14.57 18.95-28.92 29.94-25.47 9.91 3.11 14.14 19.92 11.54 32.3z"/><path d="M11.4 134.24c-4.47 1.58-5.78 2.63-2.1 5.25s15.75 11.3 21.79 10.77 17.86-6 15.23-9.19-7.61-6.83-7.61-3.94c.79 4.47.79 8.93-7.36 8.93a23.14 23.14 0 0 1-15.75-5.52c-3.42-2.62-2.63-1-4.2-2.62s0-3.68 0-3.68zM74.69 59.4c-.53-5-.79-4.73 7.87-3.68s18.91-3.41 17.07 4.2S88.08 88 86.24 88.55s-11.55 6.56-10.77 1.31S80.46 67 74.69 59.4z" fill="#0068b6"/><circle cx="59.09" cy="26.2" r="1.28"/><circle cx="70.44" cy="30.3" r="1.28"/><path class="cls-2" d="M59.27 10c-8.64-1.36-13 14.05-8.91 11.35a104 104 0 0 0 10.27-8.65c8.37 7.84 13 7 13 7C75.76 26.51 82 31.65 82 31.65s-3.52 7.84-1.35 5.94 9.17-4.59 6.46-12.16S77.11-.79 66.57.84 59.27 10 59.27 10z"/><path class="cls-4" d="M87.25 91.44c-12.18-4.2-28.81 11.09-33.83 26.88-4.23 13.3-1.91 32.32 8.4 37C73.68 160.59 94.09 146 99 127.91c3.76-13.79-.69-32.65-11.75-36.47z"/><path class="cls-4" d="M95.17 105.36c-7.46-4.43-22.4 3.58-27.35 15.35-4.74 11.26-.83 27 7.43 29.52 7.7 2.32 17.27-7.44 21.36-15.6 4.9-9.78 5.77-25-1.44-29.27zm-8.82-10.6l-4.38 10.36m-7.2-52.07l27.36 4.32-13.65 32.34M54.26 16c-6.71 9.72-9.94 21.3-8.26 25.48 2.34 5.73 9.31 8.36 9.44 15.9m6.57-31.95l-4.6 8.23 4.36.48m-3.63 4.12c1.69 3.87 6.29 2.42 8 1.69m.22-1.94l.97 4.36m14.53-4.11c2.42-1.7 4.85-.06 4.84 1.93 0 3-4.09 6-7.24 4.33M57.89 9.7c3.55 9.79 11.23 12.85 15.74 14m-6.3-17.64c0 11.62 8.72 20.09 12.59 22.27M55 8.67c-8.38 3-8 15.24-6.76 18.38"/><path class="cls-4" d="M61.77 6.31c.48-5.57 6-9.44 14.52-.49s18.15 23.24 10.89 28.81M57.74 67.21c1.68-4.56 8.4-9.36 8.4-9.36m6.23-3.6l.72 3.6V66c-2.87-2.88-8.87-4.08-8.87-4.08m-11.04-6.23L49.34 60c2.4-1.68 7.2-1 7.2-1m8.16 4.85v1.68l-4.56.48m-4.8-5.52l-1.2 1.68 2.88 1.92m-9.6 6.48L36.38 102l13.92 2.88m17.76-31.19a75.75 75.75 0 0 1-2.48 16.88m9.19-27.2c2.16 5.76-.14 20.17-.62 24.25-1.3 4.6-1.83 7.49-6.82 7.76M44.3 70.57C40.94 79.93 35.66 83 35.66 83m3.6 22.12s-9.35 1-12.47 5.76-2.16 24.23-2.16 24.23l11 4.8 3.12-19.68 9.6.72"/><path class="cls-4" d="M33.74 103.2c-11 0-14.39 2.88-14.87 8.16s1 18.71 1 18.71l3.36 1m-4.12-24.51l-12.48 5.76 10.56 4.08m23.75 7.91l8.16 3.36m-31.91 3.6l-13.68 5.76 27.83 15.6 18.24-10.32m48.1-85.7l2.88-9.84c1-3.12 1.44-4.56 3.84-5s12.48-1.92 12.48-1.92l-.24 2.88-10.8 2.4-4.08 10.56"/><path class="cls-4" d="M18.63 82.91c-5.49 2.92-10.86 10-15.4 22.75-6.5 18.2.37 27.11 2.6 28.78m23.06 5.03c-2.63-2.45-7-3-7-3l-4 7a87.7 87.7 0 0 0 19.77-3m-15.92-7.02a11.47 11.47 0 0 0-6-1.7l-2.07 7.53 6.75-1.28m6.88-58.86a8 8 0 0 0-4.23 7.45M29 80.32c.68 3.06-2.54 2.21-3.22 4.58 0 0 5.42-1 6.78-2.37a3.75 3.75 0 0 0 .34-5.26"/><path class="cls-4" d="M23.74 79c-1.69 1.19-2 5.59-1.86 7.12-2.54-2-2.71-8.82 5.76-9.66m32.8 15.83c-6-3-11.67.38-9.6 6.59m1.88 1.32c0-4.89 2.08-5.27 4.15-6m-2.64 6.8c.75-2.83 2.45-4.15 4.14-4.15m-1.88 4.67c.57-1.51 1.13-2.64 2.64-2.45s4.52 1.32 6-2.45"/><path d="M53.22 29.23a2.58 2.58 0 0 0-3.66.36 2.62 2.62 0 0 0 1.52 3.57 2.26 2.26 0 0 0 2.14-3.93zm20.88 4.91a2.82 2.82 0 0 0-3.21 1.07c-.7 1.32.39 3.23 1.87 3.84 1.2.49 2.88.23 3.48-.81.76-1.32-.4-3.59-2.14-4.1z" fill="#ecb0c4"/><path class="cls-4" d="M49.77 99.68l-1.88 1.87 8.04 2.41m24.92-18.48l-5.11 2.28m-56.25-3.89l-1.87.54-.8 1.87-.27 1.88 6.16 2.68 20.09-8.85m1.88 68.59c-3-.41-5.9 3.15-6.43 6.43-.39 2.37.25 5.89 2.68 7 2.84 1.26 7-1.34 8-4.83s-1.15-8.18-4.25-8.6zM18.96 91.64l-4.29 16.34m-2.14 8.84l-3.48 16.35m68.96-20.27l.35 7.95m-1.05-23.9l.44 10.04m-4.51 11.26l2.23 4.44m-8.4-17.86l3.64 7.74m1.08 10.94l4.47 2.59m-14.71-8.93l4.31 2.62m5.25 13.74l2.52-2.18m-13.39 11.56l5.22-4.5m19.73-18.09l10.28-9.15m-10.02 11.78l11.29-1.31m-12.08 4.72l7.88 3.68m-9.71 1.58l3.94 8.4m-6.31-4.2l-.05 10.28m6.19-38.5l-5.35 12.99m9.19-22.33l-1.76 4.29m-15.21 37.53l3.58-5.84m-9.98 16.28l2.16-3.53m1.56-18.49l2.06-.04m-14.71.27l5.67-.1"/></g></g></svg>