<svg xmlns="http://www.w3.org/2000/svg" width="84" height="192"><defs><style>.cls-2{fill:#0068b6}.cls-3{fill:#00a199}.cls-4{fill:none;stroke:#000;stroke-linecap:round;stroke-linejoin:round}</style></defs><g id="レイヤー_2" data-name="レイヤー 2"><g id="レイヤー_1-2" data-name="レイヤー 1"><path d="M81.45 27.28a5.76 5.76 0 0 1-1.6 1.51l-2.38-3.93c5.19-14.23-2.29-21.18-6.72-17.68a29.58 29.58 0 0 0-2.94 2.51c-.29-.57-.62-1.14-1-1.71C61.29-.75 45.9-.31 38.41 5l-3.17 1.93s-1.91-.53-3.4-.85c-7.6-1.52-13.31 6.09-7.6 14.45l.13.07a20.33 20.33 0 0 0-1.22 3.77l-.25-.08c-.82-1.23-3.08-.82-3.22 1.57-.09 1.71 1.23 4 2.94 3.76l.32-.12c.74 4.62 4.18 8.45 10.43 11.57 3.75 2 5.69 3.84 6.69 6.28h-1.73l1.5 4.5.39 3S37 59.6 34.7 61.51c-4.38 3-6.26 5.63-3.75 12.77a54.8 54.8 0 0 0-14 5.6l-.38.16c.45-1.52.26-2.91-.9-3.63-.25 2.37-1.12 3-2.88 5.13A22.65 22.65 0 0 0 11 83.27c-2.73.84-4.41 3.86-4.62 6.53a1.87 1.87 0 0 0 .49 1.25C4.39 96.4 3 103.43 2.54 113 2.16 116.59 1 145.75 1 145.75h27.32c7.61 9.27 10.78 29 10.58 34.39a24 24 0 0 0-2.19 2.39c-1.41-2.29-2.73-2.71-2.73-2.71-.64 4.7-5 9.19-5 9.19l-3.2.43h8.52c-.39.34-.64.54-.64.54l-3.53 1.38L46 192l5.24-.75-.11-1.5-2.75.18a16.31 16.31 0 0 0-1.6-5.41c.87-6.66 2.93-28.21.18-37.52l-.36-1.26h12.88S55.38 93 50.87 80.22l-.14-.32c1.66-8.19 1.9-17.5-.79-25.29L49.35 53l1-5.76H48.9A6.28 6.28 0 0 1 51 44c4.83-3 8.86-5.89 11.46-9.28 3.83 1.47 6.38-1.6 6.32-3.45a2.51 2.51 0 0 0-1.95-2.41l.14-.12a26.86 26.86 0 0 0 2.63-8.66l1.45 4.63c-.69 7.1 1.25 11.91 6.42 9.65a7 7 0 0 0 3.98-7.08z" fill="#fff"/><path class="cls-2" d="M30 77.52a3.05 3.05 0 0 0-2.64 3.34 3.14 3.14 0 0 0 3.87 2.64A3.08 3.08 0 0 0 33 79.81a3 3 0 0 0-3-2.29zM14.67 105.8c-1.52 1.45-1.41 4.25 0 5.28 1.58 1.14 4.57 0 5.28-2.11a3.26 3.26 0 0 0-.88-3.52 3.46 3.46 0 0 0-4.4.35zM50.8 139c-1.53 1.45-1.41 4.25 0 5.28 1.57 1.14 4.56 0 5.28-2.11a3.28 3.28 0 0 0-.88-3.52 3.45 3.45 0 0 0-4.4.35zm-19.53-19.4c-1.95-.59-4.34 1.66-4 3.16.21 1.09 1.81 1.85 3.16 1.76 1-.06 2.52-.58 2.82-1.93a2.77 2.77 0 0 0-1.98-2.99zm7.83-51.26c-2-.59-4.34 1.66-4.05 3.16.21 1.08 1.81 1.85 3.17 1.76 1-.06 2.51-.58 2.81-1.93a2.75 2.75 0 0 0-1.93-2.99zm3.26 44.4a2.33 2.33 0 1 0 1.93 4 2.3 2.3 0 0 0 .88-2.28 2.42 2.42 0 0 0-2.81-1.72zm-27.1 15.13a2.77 2.77 0 0 0-1 3.69 2.88 2.88 0 0 0 4.92-2.81 2.8 2.8 0 0 0-3.92-.88zM46.29 60a2.55 2.55 0 1 0 3.87.88 2.79 2.79 0 0 0-3.87-.88zm-7.1 70.68c-1.64 0-3 2-2.46 3.34a2.56 2.56 0 0 0 3 1.24 2.51 2.51 0 0 0 1.93-2.47 2.46 2.46 0 0 0-2.47-2.11zm11.36-9a2.53 2.53 0 0 0-1.41 3.32 2.53 2.53 0 0 0 4.75-1.23 2.6 2.6 0 0 0-3.34-2.09zm-45.84 14.1a2.54 2.54 0 0 0-1.41 3.35 2.53 2.53 0 0 0 4.75-1.24 2.6 2.6 0 0 0-3.34-2.11zM47 91.79a2.39 2.39 0 0 0 1.41 4.57 2.5 2.5 0 0 0 1.89-2.46 2.59 2.59 0 0 0-3.3-2.11zM2.82 120.94a2.54 2.54 0 0 0-1.41 3.34 2.5 2.5 0 0 0 2.82 1.24 2.5 2.5 0 0 0 1.93-2.47 2.6 2.6 0 0 0-3.34-2.11zM51 102.09c-1.25 0-2.39 1.76-1.93 3.16a2.05 2.05 0 0 0 4-.7 2.45 2.45 0 0 0-2.07-2.46zM38.68 54.37c-1.25 0-2.38 1.76-1.93 3.17a2.3 2.3 0 0 0 2.64 1.58 2.31 2.31 0 0 0 1.41-2.29 2.48 2.48 0 0 0-2.12-2.46zM45 80.89c-1.26 0-2.39 1.77-1.94 3.17a2.3 2.3 0 0 0 2.64 1.58 2.31 2.31 0 0 0 1.41-2.28A2.48 2.48 0 0 0 45 80.89zM7.12 95.86a2.29 2.29 0 1 0 1.23 4.4c1.59-.24 2.8-2.07 2.29-3.34s-2.24-1.57-3.52-1.06zm24.79 8.67a2.47 2.47 0 1 0 2.9 2.36 2.54 2.54 0 0 0-2.9-2.36zm-5.99 34.29a2.6 2.6 0 0 0-2.35 2.91 2.5 2.5 0 0 0 2.17 2 2.68 2.68 0 0 0 2.91-2.73 2.59 2.59 0 0 0-2.73-2.18zm-9.25-57.69a2.78 2.78 0 0 0-2 2.9 2.72 2.72 0 0 0 1.82 2.36 2.94 2.94 0 0 0 3.63-2.54 2.89 2.89 0 0 0-3.45-2.72zm18.47 65.39c-2.81-1.24-6.51-1.94-4.39 1.23s5.8 13.9 6.33 18.47-.18 14.78 1.41 14.6 3.87-2.64 3.16-9c-.47-4.2-2.11-20.2-6.51-25.3z"/><path class="cls-2" d="M46.05 148.1c-.88-2.82-7.56-4.93-7.56-.88s4.4 11.08 4.4 19.53-2.47 14.95-.53 16.18 4.22-.35 4.57-7.91 3.17-21.12-.88-26.92z"/><path class="cls-3" d="M67.29 10.42C70.05 6 74.61 4.48 76 9.73S74.06 16.78 75 22s2.21 3.28 4.15 2.35c4-1.94 8.15 6.08.83 7.87s-12.56-1.9-9.38-13.92c.55-2.63 1.25-5 .28-4.7s-4.56-.28-3.59-3.18z"/><path class="cls-3" d="M31.63 6.69c-8.59.16-9.39 3.18-8.7 6.77s1.38 3 3.87.14 6.49-7.73 8.29-4.7 17.27 13.27 18.38 8.57c1.79 2.62 10 6.91 11.6 5.94s4.43-17-8.42-20.31-19.9.41-25.02 3.59z"/><path class="cls-4" d="M42.73 22.51a9 9 0 0 1-2.67 4.19 3.45 3.45 0 0 0 2.53.25m-2.42 2.41a4.41 4.41 0 0 0 6.46.76M35.88 8.06c4.56 11.79 15.59 11.79 15.59 11.79M44.25 7.68c5.7 12.55 16 14.83 16 14.83"/><path class="cls-4" d="M37.88 4.31c7.49-5.3 22.88-5.75 28.43 3 4 6.26 3.77 13.26.17 20.75M31.32 5.4C23.71 3.88 18 11.48 23.71 19.85"/><circle cx="38.8" cy="22.15" r="1.24"/><circle cx="50.44" cy="23.4" r="1.24"/><path class="cls-4" d="M70.22 6.5C75 2.75 83.24 11 75.6 27.41m-3.38-11.02C69.6 29 76.61 32 80.11 29.41M72.08 16.4C69 27.17 70.1 36.67 77 33.67M6.4 90.32c-2.53 5.34-3.94 12.39-4.39 22C1.63 115.9.5 145.07.5 145.07H59s-4.11-52.76-8.61-65.53M34.17 60.83c-4.38 3-6.26 5.63-3.75 12.77a54.8 54.8 0 0 0-14 5.6"/><path class="cls-4" d="M44.94 65.46c1 6.13-3.38 21.9-9.52 26.66l5.39 7.14c6.38-4 14.48-28.31 8.6-45.33M39.3 51.19l-1.5-4.51 12.02-.12-1 5.76m-14.4 41.05C31 95 25 92 25 92c-.87 1.62 0 3.5 3.38 3.88M28 97.63a41.83 41.83 0 0 0-7.14 3m8.68-1.25a59.27 59.27 0 0 0-6.76 4.62m9.14-3.12c-4.76 4.13-6.76 5.76-6.76 5.76m10.14-5.26l-3.26 4.26M12.27 80.86c1.75-2.13 2.62-2.76 2.88-5.14 2 1.26 1.12 4.51-1 7m1.75 7.9c.62-4-1.26-8.64-3.88-8.26-3.63 0-5.89 3.63-6.14 6.76"/><path class="cls-4" d="M9.89 87.86l5.25 2.51-3.37-5.63M7.89 91c2.87 1.26 6.5.26 6.5.26m33.69-43.65a7.14 7.14 0 0 1 2.43-4.3c4.83-3 8.86-5.89 11.46-9.28 3.83 1.47 6.38-1.6 6.32-3.46a2.42 2.42 0 0 0-3.56-2.16 18.12 18.12 0 0 0-.33-8.94m-36.89-6.08c-8.37 12.17-6.84 20.91 5.33 27 4.09 2.18 6 4.17 6.94 6.94m-4.19 97.07c6.09 12.51 8 29.93 6.3 38.91l4.28.75c.85-6.42 3-28.33.21-37.74m-2.78 43.4a9.26 9.26 0 0 0-5.34-6.72c0 2.24-5.13 6.3-5.13 6.3l-3.53 1.39 15.82.64 5.24-.74m-23.73-46.51c8.23 8.76 11.65 29.82 11.44 35.38m-1.18 4.38c-1.71-4.06-3.74-4.7-3.74-4.7-.64 4.7-5 9.19-5 9.19l-3.21.43h5.13"/><path d="M54.27 27.82c-.65.15-1.5.64-1.51 1.24s1.06 1.19 1.77 1.33c1.23.25 2.76-.3 2.83-1s-1.64-1.88-3.09-1.57zm-24.51-2.56a2 2 0 0 0-1.15 2c.25.94 1.49 1.22 2.13 1.24 1.24 0 2.64-.77 2.65-1.59.02-1.01-2.18-2.35-3.63-1.65z" fill="#ecb0c4"/><path class="cls-4" d="M22.37 23.6c-.82-1.23-3.08-.82-3.22 1.58-.09 1.71 1.24 4 2.94 3.75"/></g></g></svg>