<svg xmlns="http://www.w3.org/2000/svg" width="65" height="191.69"><defs><style>.cls-2{fill:#ecb0c4}.cls-5{fill:none;stroke:#000;stroke-linecap:round;stroke-linejoin:round}</style></defs><g id="レイヤー_2" data-name="レイヤー 2"><g id="レイヤー_1-2" data-name="レイヤー 1"><path d="M48.86 37h-.64a20.1 20.1 0 0 0 .85-2.28l.23.1c3.88 1.48 8.46-4.05 5.23-6.78a2.51 2.51 0 0 0-2-.58v-.1c4-12.73-3.5-25.75-10.33-25.85a22.48 22.48 0 0 0-4.14.27A8 8 0 0 0 34.73.39C18.88-2.14 7.14 10.3 10.35 28l.07.07a2.64 2.64 0 0 0-3.64 1.73c-1 2.9 2.38 6.51 5.54 4.9h.06c1.33 4.68 4.37 8.32 9.76 11 2.68 1.42 3.49 4.37 3.69 6.56l-2.11.12a8 8 0 0 1-1.38 3.23 25.17 25.17 0 0 0-2.84 1.49c-2.61 1.51-4.82 5.63-4.82 5.63h-.08a1.77 1.77 0 0 0-.6-1.12 2.52 2.52 0 0 0-1.69.1v-.19l.24-12.61H6.09v9.61C4 57.4 1.14 56.67 1 58.66c0 0-1 7.34.64 9.34l.07.07.16 3.43c1 20.86 7.71 21.82 11.7 12.17l-2.28 70.06 6-.06 4.41 27.65h.43a9 9 0 0 1-.79 1.72 6 6 0 0 0-2.93-.11 24.77 24.77 0 0 1-5.41 6l-1.81 1s10 1.32 11.19.66 3.78-2.47 3.78-2.47L28.3 187l-1.53-3.63-.26-1.65h.31l.7-28.09h1.65l.12 27.62.46-.07L29 187l2.14 1.15s2.63 1.81 3.78 2.47 11.18-.66 11.18-.66l-1.81-1a24.83 24.83 0 0 1-5.46-5.96 5.53 5.53 0 0 0-2-.07.52.52 0 0 1 .1.11l-.12-.11A14.69 14.69 0 0 1 35 180.4h.19l2.9-26.88 11-.12-5.16-68.94.25.1c1.61 4.16 7.43 6.52 10.24-4.47l.35-2a8.43 8.43 0 0 0 2.79-6 8.88 8.88 0 0 0-4.85-7.94v-.1a5.52 5.52 0 0 0 3.24-2c1.61-2 .67-9.37.67-9.37-.12-1.49-1.73-1.46-3.41-.89l.33-2.19-6.16.53-.33 7.06v.11a2.22 2.22 0 0 0-2.21-.47c-1.34 1.07-.4 3.62.14 4.29.38.47 1.28 0 1.93-.73v.09l-.12 2.63a9.73 9.73 0 0 0-2.2.63l.15-.25a25.33 25.33 0 0 0-4.23-6.66l-1.26-1.3h.06l-.3-.2-2-2.09a4.49 4.49 0 0 1-.68-1.66h-.91a9.72 9.72 0 0 1 4.72-5.75 18.26 18.26 0 0 0 7.06-6.85l1.12.09c3.73.93 8.63 10.49 8.86 14.34s5.37 5.71 7.58-.82-8.91-16.8-15.9-15.59z" fill="#fff"/><path class="cls-2" d="M10.49 71.41s1.53-6.55 0-7.64S7.44 60.49 7 67 5.47 82.32 8.75 81.45s1.74-10.04 1.74-10.04z"/><path d="M33.2 153.71c-3.06.44-2.84 3.06-3.49 9.17s-.44 17.25 1.74 17.25S35.38 171 35.82 167s2.84-14.16-2.62-13.29zm-9.83-.22c-5.24.88-5.24 1.75-3.93 8.74s1.53 17.9 3.5 17.68 4.58-22 3.71-24.45a3 3 0 0 0-3.28-1.97z" fill="#0068b6"/><path d="M48.66 37.39c7-1.16 18.07 9.21 15.85 15.74s-7.34 4.66-7.58.82-5.13-13.41-8.86-14.34zm-9.8-34.74C26.27.09 10.3 8.25 11.47 20.26 12.4 25.39 33.62 13 38.05 7.9c.46 1.4 9.79 20.52 13.52 16.32S55.42 1 38.86 2.65z" fill="#00a199"/><circle cx="25.77" cy="25.43" r="1.28"/><circle cx="38.75" cy="25.67" r="1.28"/><path class="cls-5" d="M31.05 25.47a4.48 4.48 0 0 1-2.41 3.75l2.67.54M24.55 32c3.78 6 7.55 6.23 13.47.53m.34-22.69a133.33 133.33 0 0 1-26.19 12.43M37.48 4.58C28.1 15.29 11.22 26 11.22 26M43.64 8.06c1.42 5.69 8.3 17.15 8.3 17.15a48.82 48.82 0 0 1-14.2-18M42 1.9C48.86 2 56.41 15 52.36 27.74M34.53.83C18.68-1.7 6.93 10.74 10.15 28.42m15 26.79l3.22 17.42 5.4-14.41m-10.25-5.45c-.8 3.75-2.92 4.59-2.92 4.59l1.91 2.14-3 2.68 8.84 10.45m7.73-20.57c.4 2.31 3 4 3 4l-3.91 3 3.72 3.51-10.52 10.06M46.69 61l-.12 2.62c-4.35.7-8.09 4.47-8 9 .14 4.7 4.38 8.33 8.85 8.57 4.82.26 9.77-3.43 9.91-8.57a8.92 8.92 0 0 0-4.85-7.95m.51-12.23l.35-2.32-6.16.54-.33 7.05m-34.77 4.25l.24-12.62-6.46-.02v9.45m0 11.8v8.75c-.27 5.63 5.89 4.7 5.9 0L12 66.1m15.56 13.22a2 2 0 0 0-1.47 2.28 2 2 0 0 0 2.68 1.34A2 2 0 0 0 30 80.8a2 2 0 0 0-2.44-1.48zm-.26 18.36a2.21 2.21 0 0 0-1.75 1.87 2.34 2.34 0 0 0 2 2.68 2.25 2.25 0 0 0 2.15-2 2.36 2.36 0 0 0-2.4-2.55zm-.41 18.48a2.15 2.15 0 0 0-1.34 2.41 2.22 2.22 0 0 0 2.28 1.34c1.13 0 2.27-.94 2.28-1.87.01-1.2-1.83-2.42-3.22-1.88zM44 85c1.61 4.15 7.43 6.52 10.24-4.47M40.29 57.36A25.33 25.33 0 0 1 44.52 64M19.3 57.49c-2.61 1.51-4.82 5.63-4.82 5.63"/><path class="cls-5" d="M26.76 56.55l7.9-.25s-.74-6.66 5.23-9.93a18.72 18.72 0 0 0 9-11.26l.23.1c3.88 1.47 8.46-4.05 5.23-6.78-1.53-1.3-3.52-.3-4.36.84a37.14 37.14 0 0 0-1.26-12.37m-36.97 6.16a40.62 40.62 0 0 0-.4 6.15c-1.3-1.29-3.94-1.51-4.78 1-1 2.89 2.38 6.51 5.54 4.9h.06c1.33 4.67 4.37 8.31 9.76 11 3.22 1.7 3.75 5.64 3.75 7.78M49 38.6c7 1.59 10.85 11.25 10.18 18.76M49 38.6c8.73-.29 11.25 7.64 11.52 10M16.75 151.86l4.77 29.94 5.1.33.7-28.34m1.65-.68l.12 28.52 5.92-.82 2.92-27.08M25 185.91c-3.29-3.46-6.74-2.47-6.74-2.47a24.62 24.62 0 0 1-5.43 5.92l-1.81 1s10 1.31 11.19.66 3.79-2.48 3.79-2.48l2.14-1.15m3.74-1.48c3.29-3.46 6.74-2.47 6.74-2.47a24.84 24.84 0 0 0 5.43 5.92l1.81 1s-10 1.31-11.18.66-3.79-2.47-3.79-2.47l-2.13-1.15M.77 59.1c.27-3.22 7.5.67 7.37 1.74s-3.35.4-3.35.4c1.88 1.07 3.08 1.61 3 2.41s-3.62 1.21-3.62 1.21c1.74.13 3.75 0 3.35.94s-3.75 2.54-3.75 2.54c1.87.67 4.42 1.47 3.08 2a5 5 0 0 1-5.36-1.88c-1.66-2-.72-9.36-.72-9.36zm13 2.9c-2.28-.53-3.09 1.34-2.68 2.55s2 2.41 2.54 1.74 1.48-3.17.14-4.29z"/><path class="cls-5" d="M56.42 53.2c-.27-3.21-7.5.67-7.37 1.74s3.35.41 3.35.41c-1.87 1.07-3.08 1.6-2.94 2.41S53.07 59 53.07 59c-1.74.14-3.75 0-3.35.94s3.75 2.55 3.75 2.55c-1.87.67-4.42 1.47-3.08 2a5 5 0 0 0 5.36-1.88c1.61-2.04.67-9.41.67-9.41zm-11.79 4.16c2.28-.54 3.08 1.34 2.68 2.54s-2 2.41-2.54 1.74-1.48-3.21-.14-4.28zM1.67 72c1 20.86 7.71 21.82 11.69 12.17l-2.27 70.06 37.77-.4-5.36-71.96"/><path class="cls-2" d="M54.81 74c-.43-4.15-12.88-6.77-14-2.84s4.8 7.86 8.51 7.64 5.27-2.37 5.49-4.8zM18 27.62c-1.56-.42-3.54.72-3.6 2.21a2.73 2.73 0 0 0 2.49 2.5 2.79 2.79 0 0 0 3.05-2.5A2.57 2.57 0 0 0 18 27.62zm25.19.28c-1.23-.08-2.63.67-2.77 1.66-.18 1.25 1.69 2.84 3.33 2.49a2.37 2.37 0 0 0 1.93-2.22c-.08-1.18-1.46-1.83-2.49-1.93z"/></g></g></svg>