<svg xmlns="http://www.w3.org/2000/svg" width="79.49" height="170.39"><defs><style>.cls-1{fill:#fff}.cls-3{fill:none;stroke:#000;stroke-linecap:round;stroke-linejoin:round}</style></defs><g id="レイヤー_2" data-name="レイヤー 2"><g id="レイヤー_1-2" data-name="レイヤー 1"><path class="cls-1" d="M75.46 142.29v-1.76L64 140c-.56-2.68-1.21-5.39-2-8.07l-.39-.76 2.71-1.17-6.12-5.35-1.11.1c-.38-.43-.76-.83-1.13-1.21a187 187 0 0 1 6.44-25.62 91 91 0 0 0 4.33-25.22l.1.09c5 1.37 10.55-7.34 8.26-11.93a6.77 6.77 0 0 0-.63-1l.94-.53s1.53-14.14 0-24.85-7.64-22.57-12.61-18.37l-2.28 1.45-3.08-3C46.35 5.79 38.7-6.83 24.94 7.7S.47 34.46 5.44 62a4.46 4.46 0 0 0-3.57 2C-3 70.44 6.46 78 10.43 74.33l.37-.25c1.15 10.15 3.45 19 6.87 23.84a72.1 72.1 0 0 1 11.91 26h.06c-2.51 3.19-5.76 7.46-6.57 9.11C19.59 145 19.2 169.8 19.2 169.8s33.31.72 34.76.56H71.3c3.82-.34 4.51-3.12 4.16-5.55v-5c1.68.44 3.55-.68 3.39-8.09.32-5.67.4-9.82-3.39-9.43z"/><path d="M73.68 31.15a23.39 23.39 0 0 0-5.12-9.8A6.24 6.24 0 0 0 64.85 19c-1.57-.25-4 .51-5.38-.25a.86.86 0 0 0-.45-.1c-1.38-2.65-4.22-4.87-6.12-7.03a19.8 19.8 0 0 0-7.76-5.44c-7.61-2.93-15.47.93-21.78 5.06A30.94 30.94 0 0 0 15.24 19a35.44 35.44 0 0 0-2.31 4.19c-.83 1.58-1.83 3-2.74 4.56A24.21 24.21 0 0 0 6.54 38c-.17 2.43-.93 6 1.56 7.52 2.1 1.32 6.2.43 8.32-.35 3.61-1.34 7-3.34 10.58-4.89 1.46-.64 2.73-1.59 4.19-2.26 2.44-1.12 4.82-2.36 7.3-3.41 4.06-1.74 8.07-3.59 12.22-5.1a40.64 40.64 0 0 1 5.82-1.76 14.68 14.68 0 0 1 4-.44 3.53 3.53 0 0 1 3.09 2.57 30.14 30.14 0 0 1 2.38 12c0 1.86.25 3.68.24 5.54a12.65 12.65 0 0 0 .55 4.66c.76 2 2.21 1.6 3.65.28 2.25-2.07 3.33-5.6 3.7-8.54.46-4.08.64-8.65-.46-12.67z" fill="#00a199"/><circle cx="29.35" cy="56.44" r="2.22"/><circle cx="51.14" cy="56.83" r="2.22"/><path class="cls-3" d="M37.21 49.53s0 17.8-6.17 26.52l10.53-.73m-12.22 5.21c6.88 10.32 17.59 7.26 24.85-.38M11.94 49.56c11.85-16.82 29.44-24.08 29.44-24.08M19.59 44.21C37.17 36.18 62 26.62 62 26.62m-4.18 3.83l7.26 15.67m-2.29-30.58c5-4.21 11.08 7.64 12.61 18.35s0 24.85 0 24.85"/><path class="cls-3" d="M57.43 14C46.35 5.22 38.7-7.4 24.94 7.13S.47 33.89 5.44 61.41m24.09 61.94l10.7 8.03 15.68-11.09M32.55 136.5l7.68-5.12 9.94 7.64"/><path class="cls-3" d="M36.79 133.67l1.15 3.44-2.47 14.3m8.31-17.4l-1.64 3.48 1.73 17.26"/><path class="cls-3" d="M58.2 124.11l6.12 5.36-8.03 3.44 5.73 6.88-22.95 28.41-17.19-26.5 6.12-7.26-4.97-1.92 3.82-5.35M23 132.52c-3.44 11.85-3.83 36.7-3.83 36.7M62 131.38c5 17.58 5.35 36.7 5.35 36.7"/><path class="cls-3" d="M11.56 37.71a128.81 128.81 0 0 0-1.48 26.2c-2.27-2.87-6-3.56-8.21-.55-4.87 6.51 4.59 14.06 8.56 10.39l.37-.25c1.15 10.15 3.45 19 6.87 23.85 11.47 16.06 12.62 30.2 12.62 30.2l8.79 40.14L55.52 126s1.15-10.7 6.88-28.67a91 91 0 0 0 4.33-25.23l.1.09c5 1.38 10.55-7.34 8.26-11.92-1.83-3.67-5.72-4.1-8.61-1.32a250 250 0 0 0-3.31-25.85"/><path class="cls-1" d="M75.39 138.66v25.49c.37 2.55-.36 5.47-4.37 5.83H52.81c-3.28.37-5.83-2.91-5.46-5.1 0 0-.37-22.94-1.46-24.76A9.49 9.49 0 0 0 43 137.2z"/><path class="cls-3" d="M75.46 140v24.28c.35 2.43-.34 5.2-4.16 5.55H54c-3.12.35-5.55-2.78-5.21-4.86 0 0-.34-21.85-1.38-23.58a9.07 9.07 0 0 0-2.78-2.78z"/><path d="M51.74 162.28a11.17 11.17 0 0 0 7.07 4.25c2.78.46 6.78.76 9.5-.15a11.38 11.38 0 0 0 5.29-4.86c1.24-2.26.1-4.63-.28-6.88A.91.91 0 0 0 73 154a1 1 0 0 0-.69-.82c-3.11-1-6.53-.88-9.77-1.07a89.73 89.73 0 0 0-9.13-.45c-1.94.09-2.74 1.1-2.87 3-.21 2.45-.2 5.55 1.2 7.62zm4.54-91.03a3.56 3.56 0 0 0 .57-4.37 5.25 5.25 0 0 0-5.64-1.42c-1.4.59-2.83 2.9-1.8 4.35A4.38 4.38 0 0 0 51.68 71a12.31 12.31 0 0 0 3.31.47.69.69 0 0 0 1 .07l.23-.23zm-29.74-3.19a2.78 2.78 0 0 0-1.91-1.8c-1.9-.71-3.59-1-4.92.83-1.22 1.67-.29 3.49 1.62 4 1.39.4 3.31.71 4.47-.34a.9.9 0 0 0 .32-.6 2.38 2.38 0 0 0 .42-2.09z" fill="#ecb0c4"/><path d="M46.16 155.32c-1.29-3.87 2.43-6.31 3.58-4.3s.29 6.16-1.29 6.59-2.29-2.29-2.29-2.29zm32.69-4.18c.43-7.6.43-12.47-8.75-7.31-6.59 2.44 2.9 13.76 2.9 13.76s6.14 6.74 5.85-6.45zm-11.04-3.15l10.9-2.3m-9.61 5.74l9.18-.72m-7.32 3.73l7.46 1" stroke="#000" stroke-linecap="round" stroke-linejoin="round" fill="#fff"/></g></g></svg>