<svg xmlns="http://www.w3.org/2000/svg" width="103.13" height="138.75"><defs><style>.cls-1{fill:#fff}.cls-3{fill:#ecb0c4}.cls-4{fill:none;stroke:#000;stroke-linecap:round;stroke-linejoin:round}</style></defs><g id="レイヤー_2" data-name="レイヤー 2"><g id="レイヤー_1-2" data-name="レイヤー 1"><path class="cls-1" d="M80.91 10.44l-2.86-.29L76 8.62C43.31-7.45 9.61 3.18 4.42 30.66s23 44.45 23 44.45c10.26 6.84 16.79 8.69 17.8 16a17.75 17.75 0 0 0-4 3.79A26.18 26.18 0 0 0 39 98.47l-.6-5-37.9 7.2 9 37.51 61.07-1.83s.82-23.89-9.12-40.71c0 0-1.47-1.83-3.08-3.75.81-7.56 4.06-9 10.1-12.6a28.1 28.1 0 0 0 3.41-.4C124.2 66.7 97.5 16.92 80.91 10.44z"/><path d="M98.2 34.45a42.75 42.75 0 0 0-7.11-11.73A95.88 95.88 0 0 0 80.81 12a17.28 17.28 0 0 0-4.54-2.72 10.11 10.11 0 0 0-4.74-.8C68.39 6 64.92 5.25 60.79 4.69 55.94 4 51.11 3 46.2 2.89a48.27 48.27 0 0 0-14.68 2.36 49.54 49.54 0 0 0-12.15 4.91 37.21 37.21 0 0 0-9.06 7.63c-2.32 2.76-3.07 7.13-3 10.62a18.11 18.11 0 0 0 4.05 10.68c2.43 2.78 4.92 1.8 7.5-.27.82-.65 1.55-1.39 2.34-2.07 1.22-1 1.49-1 3-.78 2.21.36 4.4-.45 6.57-.76a50.2 50.2 0 0 0 12.43-3.65c4.17-1.74 8.27-3.57 12.4-5.39a30.51 30.51 0 0 0 5.32-2.69c1.89-1.34 3.6-3 5.56-4.24 2.29-1.46 3.3.34 4.46 2.19s2.09 3.64 3.17 5.43a47.63 47.63 0 0 0 8.5 9.67c3.17 3 7.16 5.06 9.91 8.46 1.64 2 4 4 6.16 1.41 2.52-2.99.74-8.77-.48-11.95z" fill="#00a199"/><path class="cls-3" d="M67.12 124.1a51.76 51.76 0 0 0-2.62-17.93c-.86-2.63-2-5.13-2.93-7.72-.4-1-1-3.26-2.48-3.26-1.8 0-3.72 3-4.81 4.19-1.53 1.62-3.58 2.56-5.28.62-1.23-1.35-1.6-3.2-2.6-4.7-1.15-1.7-2.59-1.32-3.69-.16-3.89 2.19-5.18 8.43-6 12.33-.57 2.75-.7 5.55-1.42 8.28A39.83 39.83 0 0 0 34 124c-.15 2.54-.57 5-.86 7.52-.15 1.38-.3 3.06.85 4.06 1.53 1.33 4.16 1 6 1 3.05 0 6.08.14 9.13.21 5.14.11 10.46.78 15.34-1.46 3.54-1.64 2.54-8.06 2.66-11.23z"/><path class="cls-4" d="M46.89 13.1a302.7 302.7 0 0 1-25.08 26.62s34.81-10.23 53.75-25.08M47.92 44.33c-.52 4.61-4.1 8.19-4.1 8.19l6.66-.52m-10.41 4.62c3.58 7.67 12.79 9.72 21 1"/><path class="cls-4" d="M22.32 24.88c-2.8 5.59-4.26 13.3-4.38 21-2.26-2.17-6.41-1.2-7.14 1.7-1.69 6.75 3.93 10.89 8.06 10.1 1.36 7.52 4.21 13.91 8.58 16.82 10.75 7.17 17.4 8.85 17.92 17l5.11 8.84 7.68-6.79c.52-12.8 6.15-10.9 17.92-20.11 4.1-3.21 6.46-8.22 7.6-14.27 7-1 10.22-7.83 7.49-12-1.78-2.69-4.64-2-6.66-.85a89.61 89.61 0 0 0-1.94-17m1.36 13.17s-12.83-8.21-20.49-20.3M35.44 14.7C25.58 26.33 17.77 43 17.77 43"/><path class="cls-3" d="M29.73 49.89c-3.13-.38-6.45 2.44-6.16 4.62.27 2 3.55 3.35 6.16 3.08 1.66-.18 4.31-1.15 4.62-3.08.35-2.1-2.19-4.33-4.62-4.62zm42.62 0c-2.44-.15-5.13 1.66-5.13 3.59s3.06 3.86 5.65 3.59c1.7-.17 3.91-1.31 4.1-3.08.23-1.99-2.28-3.99-4.62-4.1z"/><path class="cls-4" d="M41.27 94.3C31.71 106.53 31 136 31 136m30.4-40.94c9.94 16.82 9.12 40.72 9.12 40.72m-15.87-19.31l10.32.38"/><path class="cls-4" d="M46.81 96.59l-6.11 5.35-1.53-4.39m15.86-.58l5.93 5.74.57-6.5m-1.04 18.12l-.11 5.04m2.69-5.6l-.23 5.6"/><path class="cls-1" d="M44.85 137.03l-5.16-43.01-37.85 7.23 8.94 37.5"/><path class="cls-4" d="M43.51 135.88l-5.16-43.01L.5 100.1l8.95 37.5"/><path d="M40.15 128.81a67 67 0 0 0-.35-7.22c-.45-3.82-.52-7.63-1-11.43-.36-2.6-.85-5.17-1.2-7.77-.26-1.89-.45-4.21-1.52-5.83-1.86-2.8-5.52-.73-8-.09-4.93 1.31-9.93 2.2-14.76 3.87-3.12 1.08-6.27 2.69-6.84 6.3a15.81 15.81 0 0 0 .32 5.22c.5 2.66.93 5.32 1.56 7.94.68 2.84 1.8 5.54 2.55 8.36a28.46 28.46 0 0 0 2.94 6.57.62.62 0 0 0 .3.28.57.57 0 0 0 .6.72c4.86-.36 9.67-.33 14.56-.28 3.06 0 8.07.26 10.18-2.48.96-1.24.67-2.66.66-4.16z" fill="#0068b6"/><path class="cls-4" d="M80.91 9.87c16.59 6.48 43.29 56.26-9.08 68.44M76 8.05C43.31-8 9.61 2.61 4.42 30.09s23 44.44 23 44.44"/><circle cx="62.63" cy="43.78" r="2.17"/><circle cx="40.25" cy="44.24" r="2.17"/></g></g></svg>