<svg width="75.84" height="172.61" xmlns="http://www.w3.org/2000/svg"><path d="M75.29 48.89c.59-4.1-4.87-24.38-8.89-32.12s-5.16-4.3-9.74-2.29l-1.41.85-2.9-4C46.05 1 35.44-5.88 23.4 9.32S2.46 34.84 3.9 44.3s2.87 12 2.87 12l2.09 1.77v.45c-1.79-2.9-5.16-4-6.95-1.65-3.64 4.72.28 15 6.94 12.73.41 8.28 2.05 15.45 6.54 22.54 8.34 13.19 11.38 14.5 12.9 30.26l-3.35-3 1.76 9.51c-5.28 18.3-5.63 41.89-5.63 41.89h48.56s-2.11-26.76-11.62-44v-9.15l-2.92 3-.15-.68c0-5.44.28-9.46 5.16-21.5a74.63 74.63 0 0 0 7-26.84c7.41 3.3 9.6-10.49 7.07-13.3A5.49 5.49 0 0 0 72 56.87l.42-.53a20.45 20.45 0 0 0 2.87-7.45z" fill="#fff"/><path d="M24.21 172.61c-1.76-18.31 4.12-45.1 4.58-46.47 2.11-6.34 9.51 13 12.67 14.43s8.45-17.25 13-16.19 13.76 46.12 13.76 46.12z" fill="#0068b6"/><path d="M48.51 13.13C40.76-1.3 34.78.81 21.75 16.65S4.5 42.35 5.56 50.09c1.21 6.28 4.22 3.88 4.92-1.4C14 42 43.22 35.66 53.79 24.39 56.37 32 68.57 59.6 72.09 52.56S67.28 12 58.36 16c-7.15 3.09-9.85-2.87-9.85-2.87z" fill="#00a199"/><circle cx="26.68" cy="50.63" r="2.17"/><circle cx="48.75" cy="50.63" r="2.17"/><g fill="none" stroke="#000" stroke-linecap="round" stroke-linejoin="round"><path d="M35.73 47.48l-.87 28.67 6.6-5.73m-18.64 5.73c8 10.32 20.93 10 31.54 0M9.63 41.17c-.24 6.41-.6 12.16-.79 17.42-1.79-2.9-5.16-4-6.95-1.65-3.64 4.71.28 15 6.94 12.73.41 8.28 2.05 15.44 6.54 22.54 8.89 14.05 11.75 14.62 13.19 33.55M54.94 120c0-5.45.28-9.46 5.16-21.5a74.63 74.63 0 0 0 7-26.84c7.41 3.3 9.6-10.49 7.07-13.3-2-2.27-5.37-2.53-6.93.55a112 112 0 0 0-3.4-21.77M51.21 19.09c-4 8.32-36.42 25.24-36.42 25.24M59 26a89.71 89.71 0 0 1-36.46 16m33.83-10a46.67 46.67 0 0 0 6.88 12"/><path d="M52.35 11.35C46.05 1 35.44-5.85 23.4 9.34S2.46 34.86 3.9 44.33s2.87 12 2.87 12m49.89-41.82c4.58-2 5.73-5.45 9.74 2.29s9.48 28 8.89 32.11a20.45 20.45 0 0 1-2.86 7.46"/></g><path d="M19.67 59.81c-2.43-.35-5.32 1.33-5.45 3.73s2.24 4.22 4.59 4.3 4.87-1.69 4.87-4c.01-2.14-2.09-3.75-4.01-4.03zm37.12-1.13c-3.06-.57-6.27 3-5.61 5.6.58 2.26 4.06 3.73 6.6 2.64a4.4 4.4 0 0 0 2.64-3.3 4.66 4.66 0 0 0-3.63-4.94z" fill="#ecb0c4"/><path d="M69.63 170.85s-2.11-26.76-11.62-44v-9.15l-11.62 12-4.57 9.86L35.48 129l-10.56-9.5 1.76 9.5c-5.28 18.31-5.63 41.9-5.63 41.9" fill="none" stroke="#000" stroke-linecap="round" stroke-linejoin="round"/><path d="M28.79 132.83l3.52 5.98 2.11-8.45 2.82 6.69m18.31-7.39l-3.52 10.21-4.23-8.8-3.52 8.09" fill="none" stroke="#000" stroke-linecap="round" stroke-linejoin="round"/><path d="M41.53 141.63a.91.91 0 1 0 1.13.77.95.95 0 0 0-1.13-.77zm.2 5.97a1 1 0 0 0-.95 1 .94.94 0 0 0 .95.82 1 1 0 0 0 .9-1 .92.92 0 0 0-.9-.82zm.27 6.63a.94.94 0 0 0-.77.94 1 1 0 1 0 .77-.94zm.17 5.96a1 1 0 0 0-1 1 .93.93 0 1 0 1-1z"/></svg>