<svg xmlns="http://www.w3.org/2000/svg" width="89.92" height="152.49"><defs><style>.cls-1{fill:#fff}.cls-3{fill:none;stroke:#000;stroke-linecap:round;stroke-linejoin:round}.cls-4{fill:#ecb0c4}</style></defs><g id="レイヤー_2" data-name="レイヤー 2"><g id="レイヤー_1-2" data-name="レイヤー 1"><path class="cls-1" d="M85.36 65.37c3.34-1.88 5.06-6.22 3.44-8.87a4.46 4.46 0 0 0-5.51-2c4.6-12 5.15-47.74-21.42-52.83C34.92-3.49 7.58 25.94 6.24 52.13v.5a4.15 4.15 0 0 0-4.24 1c-3.48 2.87-.75 14.52 6.9 10.88l.19-.1c2.23 14.25 13.37 21.69 21.76 28.82 4.89 4.4 6.75 7.13 7.09 15.58l-3.41.09c0 .86-4.58 8.89-4.58 8.89l.46.19a5.19 5.19 0 0 0-.75 1.53 42.94 42.94 0 0 0-3.24 8.75l-2-4.25v-.54a1.78 1.78 0 0 0 .29.12c1.58.43 2.3-2.29 2.3-2.29.93-2.82-.78-4.86-2.22-5l.43-8.47-8.51-.41.19 9.43-.13-.06c-9.17-5.16-9.17-.28-8.74 7.32-.21 9.71 3.07 8.61 4.82 7.36L4.61 148c-.92 1.12-.51 3 .92 3.17s60-.71 60-.71 1.72-19.21-6-34.12l-.81-.91.81-.52-4.3-6.6h-1.92c.39-3.53 2.23-8.95 9.18-18.22 3.69-4.93 13.35-12.79 17.1-24.28a7.13 7.13 0 0 0 1.68.36.53.53 0 0 0 0 .17c1.48 4-.84 9.85-2.06 13.7a131.32 131.32 0 0 1-5.49 13.7c-.81 1.82-1.55 3.7-2.47 5.47a8.19 8.19 0 0 0-1.31 3.54 6.55 6.55 0 0 0 3.85 6.11 9 9 0 0 0 8.14.08c3.25-1.74 4.51-4.29 5.63-7.71a37.34 37.34 0 0 0 1.35-9.65A74.3 74.3 0 0 0 89 79.81c-.26-2.62-.61-11.71-3.64-14.44z"/><path d="M89 81c-.36-3.35-.83-17.38-6.94-14.93a.77.77 0 0 0-.49.72.61.61 0 0 0-.33.82c1.48 4-.84 9.85-2.06 13.69A129.58 129.58 0 0 1 73.71 95c-.81 1.83-1.55 3.7-2.47 5.48a8.19 8.19 0 0 0-1.31 3.52 6.53 6.53 0 0 0 3.85 6.1 9 9 0 0 0 8.14.08c3.25-1.73 4.51-4.29 5.63-7.7a37.34 37.34 0 0 0 1.35-9.68A74.43 74.43 0 0 0 89 81zm-5.53-44c-.9-9-5-17.82-9.42-25.6a21.79 21.79 0 0 0-6.89-8c-2.44-1.64-5.88-1.86-8.9-1.73a17.7 17.7 0 0 0-5.58.52l-.43.11a38.83 38.83 0 0 0-12.66 4.24 29.72 29.72 0 0 0-10.42 5.91c-3.13 2.9-5.79 6.35-8.71 9.44-2.78 2.94-9.75 13.44-3.3 16 3.34 1.35 7.41.53 10.81-.22 4.71-1 9.48-1.72 14.18-2.8 8.71-2 17.24-5.3 25.69-8.16 1.19-.4.44-.38.82.1a12.23 12.23 0 0 1 .83 2c.78 1.58 1.58 3.19 2.39 4.77 2.06 4 3.84 8.24 6.1 12.16 1.22 2.09 2.5 3.3 4.54 1.1s1.24-6.99.95-9.84z" fill="#00a199"/><circle cx="33.33" cy="48.78" r="2.22"/><circle cx="55.9" cy="49.69" r="2.22"/><path class="cls-3" d="M42.2 49.19a16.31 16.31 0 0 1-2.2 9.47 12.73 12.73 0 0 0 5.1-.37M33.65 62.3c2.91 4.73 12.92 9.64 23.48.36m1.27-41.32C38 26.26 9.26 50.46 9.26 50.46c19.29-12.37 62.79-22 62.79-22m-8 1.26c8.55 6.55 17 25.72 17 25.72"/><path class="cls-3" d="M10.8 45.11a53 53 0 0 0-1.91 9.47C7.47 51.88 4.63 50.78 2 53c-3.46 2.92-.73 14.56 6.92 10.92l.19-.1c2.23 14.26 13.37 21.7 21.76 28.83 5.07 4.56 6.88 7.33 7.12 16.53l6.6 4.87 8.89-7.74"/><path class="cls-3" d="M83.09 54.43C87.86 43 88.82 6.26 61.87 1.09S7.58 25.37 6.24 51.56M81 107.18c4.1-5.18 11.26-24.85 1.13-41.29 2.29 18-5.54 31.74-10.32 35.94"/><path class="cls-3" d="M37.11 114.35l5.17 36.13 10.89-41c0-3.44 1.12-9 9.27-19.9 3.69-4.92 13.35-12.78 17.1-24.27 6.72 2.23 11.66-5.45 9.26-9.38-1.92-3.15-5.69-2.82-7.75-.49a33.06 33.06 0 0 0-1.51-9.19"/><path class="cls-3" d="M43.07 116.42l-2.23-2.64-2.87 5.16m8.03-2.29l2.01-2.87 2.87 4.87"/><path class="cls-3" d="M55.18 107.76l4.3 6.59-5.74 3.73 6.89 5.45-18.35 26.95-13.77-24.37 5.74-7.17-4.25-1.72s4.58-8 4.58-8.89m-4.92 10.61c-5.74 10.89-6.31 30.68-6.31 30.68m36.13-33.83c7.74 14.91 6 34.12 6 34.12"/><path class="cls-4" d="M70.35 58.7c-.18-1.4-1.28-2.06-2.44-2.59-2.42-1.12-5.52-1.21-6.85 1.58A2.12 2.12 0 0 0 61 60a.63.63 0 0 0 .08.71 6.17 6.17 0 0 0 7.77 1.06 3.43 3.43 0 0 0 1.5-3.07zm-43.42.77a4.6 4.6 0 0 0-1.61-2.34 5.74 5.74 0 0 0-3.4-.42c-1.73.25-3.87 1.44-3.45 3.48a4.51 4.51 0 0 0 4.45 3.43 4.9 4.9 0 0 0 2.87-1.41 3 3 0 0 0 .88-1.92.61.61 0 0 0 .26-.82z"/><path d="M44.52 117.59a1.09 1.09 0 0 0-1.24 1.11 1 1 0 0 0 1.24.75 1 1 0 0 0 .76-.75 1 1 0 0 0-.76-1.11zm-.42 6.34a1.09 1.09 0 0 0-1.24 1.07 1.05 1.05 0 0 0 1.24.75 1 1 0 0 0 .76-.75 1 1 0 0 0-.76-1.07zm-.2 6.69a1.08 1.08 0 0 0-1.24 1.1 1 1 0 0 0 1.24.76 1 1 0 0 0 .76-.76 1 1 0 0 0-.76-1.1z"/><path class="cls-1" d="M25.11 123l1-17.33-10-.44.36 16.79-14.66 26.74a2 2 0 0 0 1.09 3.4c1.69.22 34.88.33 34.88.33 1.57-.11 1.93-1.42 1.33-2.74-.42-.91-14-26.75-14-26.75z"/><path class="cls-3" d="M24.39 123.43l.82-16.19-8.51-.41.3 15.68-12.39 24.93c-.92 1.13-.51 3 .92 3.18s29.61.31 29.61.31c1.33-.11 1.64-1.34 1.13-2.57-.36-.85-11.88-24.93-11.88-24.93z"/><path class="cls-4" d="M28.12 137.62c-1.54-2.66-2.38-3.92-5.51-4-2.49-.1-5.33-.68-7.76 0a.87.87 0 0 0-.62.57 1 1 0 0 0-.27.35c-1.17 2.6-9.77 10.28-4.85 12.65 3 1.42 7.27.78 10.47.88 1.62.05 3.23.11 4.86.11 1.86 0 4.67.55 6.47 0 3.87-1.32-1.91-9-2.79-10.56z"/><path d="M27 120.72c1.29-3.87-2.44-6.3-3.59-4.3s-.28 6.17 1.29 6.6 2.3-2.3 2.3-2.3zm-19 2.8c-.43-7.6-.43-12.47 8.74-7.31C23.36 118.65 13.9 130 13.9 130s-6.17 6.71-5.9-6.48zm11.06-3.15l-10.9-2.29m9.61 5.73l-9.18-.72m7.31 3.73l-7.45 1" stroke="#000" stroke-linecap="round" stroke-linejoin="round" fill="#fff"/></g></g></svg>