<svg width="84.15" height="154.7" xmlns="http://www.w3.org/2000/svg"><path d="M82 48.27a3.85 3.85 0 0 0-2.37-1l.17-.4c2.45-15 3.51-35.38-18.53-37.66l-2.61-.37-2.38-1.34C43.55-1.43-.52-5.42 1 25.55.43 36.18 7.08 54.8 7.08 54.8v.16C4.36 53.69.68 54.63.5 59.65c-.19 5.58 6.17 10.36 9.77 7 1.33 8.44 3.93 15.19 8.78 17.81 13 7 19.22 10.09 22 13.88l-5 1.23-6.15 9.8 2.51.92h-.23c-3.39 7.91-5.37 43.81-5.37 43.81l52.19.6c-.85-10.45-5.63-38.31-10.43-50.18l-.73.12.91-.74-7.29-8.65-.88-1.72-2.3.57c1.18-10.21 16-18.21 18-22.9.65-1.53.46-5.54-.1-10.35C82 62.8 86.13 52.45 82 48.27z" fill="#fff"/><path d="M48.51 108.45c-2.44-2.44-3.14-8.2.35-6.28a5.16 5.16 0 0 1 2.62 5.58c2.09 5.59.87 27.05-1.22 27.4S47.64 125 47.64 125z" fill="#0068b6"/><path d="M55.12 10.66C37.71 3.57 14.22-11 7.54 18.35s4.05 18.43 16.2 12.76 23.48-3.65 32-13.37c1.21 14.38 16.4 27.34 22.68 18.43s-5.28-27.54-23.3-25.51z" fill="#00a199"/><circle cx="53.6" cy="46.19" r="2.22"/><circle cx="30.22" cy="49.25" r="2.22"/><g fill="none" stroke="#000" stroke-linecap="round" stroke-linejoin="round"><path d="M52.9 37.81c-5.38.44-9.9 5.76-8.72 11.19 1 5 6.53 8.15 11.51 7A9.51 9.51 0 0 0 63 45.49a9.52 9.52 0 0 0-10.1-7.68zM25.33 42a10 10 0 0 0-6.63 11.87 10 10 0 0 0 10.82 7c5.33-.68 9.56-5.83 8.72-11.17-.9-5.8-7.39-9.46-12.91-7.7zm13.96 2.45l1.74 15.35 3.49-3.49m-10.7 6.4c7.71 12.21 15.75 11.5 20.92-2M36.5 47.24l7.68-1.05m18.84-.7l11.52 2.45M44.87 15.48C35.76 35.61 8.79 41.31 8.79 41.31M58 16.42c-7 12.92-34.78 17.86-34.78 17.86M54.3 18.62C54 28.53 66 37 73.57 35.32m-9.5-14.61c1.4 8 9.77 15 12.91 16.41M61.22 8.63c22 2.28 21 22.66 18.53 37.67M38.59 98.19l9.42 3.4 12.57-8.63m-15.71 11.52l2.8 4.88 3.84-.34 1.69-5.03m-5.53 5.37l-1.25 18.58m5.09-18.93L53 125.95"/><path d="M39.99 107.27l7.68-6.28 11.86 4.88M36 99l-6.15 9.79 8.61 3.21-4.33 8.43c2.09 2.09 15.28 17.22 15.28 17.22"/><path d="M37.89 100.64l11.52 36.99 12.05-42.96 7.29 8.66-7.06 5.69 7.74 3.42-20.02 25.19m.95 1.37a3.75 3.75 0 0 0-2.79 3.83 3.7 3.7 0 0 0 2.79 3.17c2.23.53 4.89-1.29 4.89-3.49s-2.62-4.08-4.89-3.51zM56.28 6.92C43.55-2-.52-6 1 25 .43 35.61 7.08 54.23 7.08 54.23"/></g><path d="M19.55 62.07c-3.16-.13-6.3 3-5.77 5.77s4.33 4.47 7.21 3.37c1.89-.73 3.79-2.84 3.36-5.29s-2.83-3.77-4.8-3.85zm43.27-6.73c-2.47-.31-5.52 1.26-5.77 3.85-.23 2.38 2 4.51 4.33 4.81 2.91.37 6-2.19 5.77-4.81-.15-2.05-2.34-3.6-4.33-3.85z" fill="#ecb0c4"/><path d="M58.19 94.8c0-10.81 16-19.29 18.1-24.18.65-1.52.46-5.54-.1-10.34 5.81 1.95 9.94-8.4 5.81-12.59-1.57-1.57-5.39-1.48-7.47 1.21-1.27-7.35-2.62-13.67-2.62-13.67m-62.64-2.3c-.26 7.41-.43 15.57 0 23.2C7 52.92.74 52.51.5 59.07c-.19 5.58 6.17 10.37 9.77 7 1.33 8.44 3.93 15.18 8.78 17.81C33.93 91.93 40 94.79 42 99.49M68.57 104c4.8 11.87 9.58 39.72 10.43 50.18m-46.92-44.42c-3.39 7.91-5.37 43.81-5.37 43.81m35.35-22.49l9.42.22m-2.47-2.69l.23 6.28m-3.14-6.28v5.83" fill="none" stroke="#000" stroke-linecap="round" stroke-linejoin="round"/></svg>