<svg width="73.1" height="151.83" xmlns="http://www.w3.org/2000/svg"><path d="M72.15 53.59c-1.75-5-6-5.66-8.65-2.6 0 0 .24-7.89-.79-22.91a26.6 26.6 0 0 0-1.71-8.4l-44.21-6.56c-6.5 4.22-9 12-9.42 19.78A89 89 0 0 0 8.69 52C6.55 49 2 49.1.81 53.35-.51 58 2.51 65.55 8 64.83c.18 12.39 3.6 20.49 12.75 28.47 4.39 4.17 5.28 7.77 5.26 11.26h-1.83l.7 9.36c-5.85 11.7-5.5 34.41-5.5 34.41l36.81 1s1-19.27-5.16-37.16l1.16-8H49.1c0-3.89 1.27-8.23 8.47-16.11C63.28 82.27 65.25 73.8 64.8 63c5.53 1.13 9.12-4.31 7.35-9.41z" fill="#fff"/><path d="M62.4 15.76c-1.82-3.41-6.21-5.43-10-5.55a46.42 46.42 0 0 0-5.61-6.15C43.58 1 38.89.24 34.61.05c-6.92-.3-20 .4-19.67 10.14.13 4.1 3.14 7.58 6.48 9.67 3.81 2.37 8.39 2.6 12.76 2.9 4.87.34 9.23-.55 14-1.27 2.57-.39 4.89-2 7.24-.22 1.43 1.06 2.57 2.31 4.51 2.17 3.79-.28 3.83-5.11 2.47-7.68z" fill="#00a199"/><circle cx="24.97" cy="44.82" r="2.17"/><circle cx="46.53" cy="45.39" r="2.17"/><path d="M54.53 132.31c-.21-4.07-2.22-7.51-3-11.47a43 43 0 0 1-.17-9.22c.07-1.74.46-4-.75-5.52-3.2-3.87-19.72.29-22.08.06-2.54-.23-2.21 2.7-2.06 4.35a20.25 20.25 0 0 1 .27 5.1.85.85 0 0 0-.63.74c-1.1 6.54-4.94 12.3-4.58 19.12a44.35 44.35 0 0 0 1.78 9c0 .68-.07 1.35-.09 2a.94.94 0 0 0 1.18 1 4.65 4.65 0 0 0 2 1.83 8.86 8.86 0 0 0 3.6 1.04c1.56.11 2.13.78 3.51 1.18 3.06.88 7.21-.37 10.25-.72 2.57-.29 5.13-.69 7.23-2.34s2.57-3.88 3.1-6.37a37.64 37.64 0 0 0 .44-9.78z" fill="#0068b6"/><path d="M37.36 110.06a.94.94 0 0 0-.77 1 1 1 0 1 0 .77-1zm.19 5.94a.93.93 0 1 0 .91.82 1 1 0 0 0-.91-.82zm.25 6.65a.91.91 0 1 0 1.13.77 1 1 0 0 0-1.13-.77z"/><g fill="none" stroke="#000" stroke-linecap="round" stroke-linejoin="round"><path d="M35.18 38.58l-5.62 30.17 10.55-.46m-13.27 2.43c4.16 9 17.08 7.09 20-.43m8.74-24.51l-3.84.45 3.33 2.09m-38.29-3l3.1.46-2.07 1.95M61 19.68a26.6 26.6 0 0 1 1.73 8.4c1 15 .79 22.88.79 22.91 2.67-3.06 6.9-2.42 8.65 2.6S70.33 64.13 64.8 63c.45 10.77-1.52 19.24-7.22 25.11-11 12-8.26 15.83-7.91 22.37"/><path d="M25.58 110.51c.35-5.51 2.07-10.67-4.82-17.21C11.61 85.32 8.19 77.22 8 64.83 2.51 65.55-.51 58 .81 53.35 2 49.1 6.55 49 8.69 52a89 89 0 0 1-1.32-19.1c.41-7.82 2.92-15.56 9.42-19.78"/><path d="M56.2 149.39s1-19.27-5.16-37.16l1.15-8-28 .38.7 9.36c-5.85 11.7-5.5 34.41-5.5 34.41"/></g><path d="M56.48 57.2c-2.31-.09-5.2.17-5.75 2.91a4.58 4.58 0 0 0 1.13 3.82c1.11 1.34 2.21 1.53 3.9 1.47a8.54 8.54 0 0 0 1.89-.21c2.34-.15 3.83-.8 4.16-3.33.37-2.76-2.94-4.56-5.33-4.66zM23 62.8c0-2.47-2.29-3.94-4.55-4.26a4.84 4.84 0 0 0-5.56 3.17 3.91 3.91 0 0 0 2.64 5.18c2.74.69 5.64-1.25 5.73-1.31A5.12 5.12 0 0 0 23 62.8z" fill="#ecb0c4"/><path d="M42.76 62.57c7.92 11.18 8.33 25.2 8.33 25.2M30.63 62.59c-4.88 6.7-7 22.13-7 22.13m-4.36-78.9c2.46 9.65 14 12.3 14 12.3M30.82 6c5.1 13.82 11.54 14.38 11.54 14.38M41 7c5 11.5 11.76 14 11.76 14" fill="none" stroke="#000" stroke-linecap="round" stroke-linejoin="round"/></svg>