<svg width="105.45" height="111.1" xmlns="http://www.w3.org/2000/svg"><path d="M44.71.66C-2.5 3.52-5.56 41.56 6.48 46.34c1.91.76 3.34.95 4.59.51C11.7 55.71 16.74 63 28 66.66c6.35 1.63 11.54 3.39 13.44 5.68h-2.35l1.11 4.59c-4.29 9.36-6.3 26.76-6.64 33.64l38.16-2.29c-.84-21.8-7.12-30-7.12-30l2-5.92h-2.66c1.89-2.09 7.43-5 14-8.15 6.21-3.51 10.2-8.75 11.55-15.21H90C125.57 24.74 92.5-2 44.71.66z" fill="#fff"/><path d="M98.6 17.15a24.15 24.15 0 0 0-4.43-4c-2.22-1.34-4.68-2.16-7-3.3a46.29 46.29 0 0 0-15.77-5 71.76 71.76 0 0 0-8.87-.95c-2.92 0-5.74-.5-8.64-.51-6 0-12.11-.48-18.15.25a30.68 30.68 0 0 0-8.07 2.49c-1.89.78-4 1.34-5.82 2.24a15.7 15.7 0 0 0-4.24.63c-2.35.86-4 2.35-6 3.83a22.44 22.44 0 0 0-4.27 3.75 60.21 60.21 0 0 0-3.48 5.91C1.76 26 1.61 29.8 1.51 33.76c-.06 2.55-.4 5.84 1.3 8 1.81 2.31 5.76 1.71 8.08.57 3.94-1.93 5.63-6.71 7.77-10.24s4.14-7.41 6.85-10.54c1.21-1.38 2.57-4.1 4.58-2.32 1.52 1.36 2.12 3.52 3.84 4.83a55.31 55.31 0 0 0 12.26 6.54 27.13 27.13 0 0 0 6.27 1.61 38.31 38.31 0 0 0 6.74 1 17.83 17.83 0 0 0 5.83-1c2.56-.87 5-3 7.49-1A29.36 29.36 0 0 0 78.14 35a24.09 24.09 0 0 0 6.45 1.8c4.09.65 7.46 1.13 11.17-1.11 2.84-1.71 6.12-4.72 6.82-8.1.83-4.04-1.28-7.71-3.98-10.44z" fill="#00a199"/><circle cx="62.43" cy="42.62" r="2.17"/><circle cx="40.64" cy="42.62" r="2.17"/><g fill="none" stroke="#000" stroke-linecap="round" stroke-linejoin="round"><path d="M23.06 13.69c-14.85 21.24-19 45.17 5 53 8 2.06 14.23 4.33 14.23 7.63m34.59-59.8c18.15 21.65 16.5 41 1 49.7-7.83 3.71-14.22 7.22-14.64 9.28M47.6 57c2.89 5.77 6.19 4.54 9.69.21m.62-5.16c2.48 3.09 2.89 7.22 2.89 11.14M45.33 52.26A20.2 20.2 0 0 0 42.86 64"/><path d="M41.62 44c-2.3.42-4.84 2.55-4.54 5s3.13 3.59 5.16 3.71c2.84.16 6.09-1.8 6.19-4.12.09-2.59-3.6-5.17-6.81-4.59zm18.77 0c-2.3.42-4.85 2.55-4.54 5S59 52.55 61 52.67c2.85.16 6.1-1.8 6.19-4.12.1-2.55-3.59-5.13-6.8-4.55zm-11.96 4.55l7.42.41m-4.74-4.95l-1.24 6.8 2.89.42M17 14.26c22.75 21.41 52.76 21.6 57.35 21.41m-24.86-23.9C68.8 41.4 90.78 45.42 90.78 45.42"/><path d="M31.71 15.79c-18 25.8-16.57 34-25.23 30.58-12-4.78-9-42.82 38.23-45.68C92.5-2 125.57 24.77 90 49.05M71.72 108.3c-.84-21.79-7.12-30-7.12-30l2-5.92H39.09L40.2 77c-4.29 9.36-6.3 26.76-6.64 33.64"/></g><path d="M77.64 55.25c-.6.48-3.82.6-4.61.43A7.12 7.12 0 0 1 69.6 54a3.87 3.87 0 0 1-.21-4c.67-.94 2.11-.78 3.12-.79 2.1 0 5.26 0 6.28 2.36a3.26 3.26 0 0 1-1.15 3.68zm-44.35-4.97a4.78 4.78 0 0 0-5.51 3c-.57 2 .62 2.9 2.17 3.1h.1a6 6 0 0 0 .85 0c2 .07 4.91.08 5.57-2s-1.28-3.68-3.18-4.1z" fill="#ecb0c4"/><path d="M68.47 100.39a48.26 48.26 0 0 0-2.57-12.51 20 20 0 0 0-2.59-5.41c-.49-.7-1.18-1.17-1.7-1.82-1-1.27-.19-1.27.53-2.42 2-3.1-2.45-3.57-4.56-3.53-4.35.1-9.34-1.43-13.6-.11-.91.28-2 .72-2.14 1.8-.21 1.57 1.69 1.79 2.21 2.94.8 1.75-1.5 5.26-2.35 6.74-1.2 2.07-2.48 3.87-3 6.25-.54 2.55-.76 5.14-1.34 7.69-.65 2.82-.41 5.74-1.09 8.54a1 1 0 0 0 .52 1.18 1 1 0 0 0 1.07.93c5 0 10.12-.71 15.14-.28a70.64 70.64 0 0 0 7.11.54c2.19 0 4.93.41 7-.55 1-.47 1.19-1.1 1.36-2.2a44.92 44.92 0 0 0 0-7.78z" fill="#0068b6"/></svg>