<svg width="95.25" height="99.22" xmlns="http://www.w3.org/2000/svg"><path d="M89.09 36.7c3.44-.76 6.12-5 .39-5.73 1.91-1.53 3-9.94-5-10.32l-.48-.14C82.34 7.67 62.51-1.17 42.07.77 26.89 3.86 8.41 15.63 11.23 29.54l-.51.28c-5.72.76-7.65 3.82-3.82 7.65-4.21 1.91-6.12 3.82-1.53 7.64-4.59 3.44-5 8 2.29 10.32s5.35-7.26 3.06-9.17c4.59-.77 1.53-5-.38-6.5 2.63 0 3.25-2.46 3.05-4.82 2 3.35 5.35 6.77 10.33 10.17l.45-.07c1.56 6.06 6.29 10.55 16.24 11.85 2 0 2.7 1.68 3 5l-1.5.46c-5.35 8.41-7.23 33.68-7.23 33.68l29.08.59c-.77-5.74-2.52-21.35-7.11-29l-1.88-5.74c-.08-2.21.27-4.93 2.84-6.36 11.83-3.1 19.69-9.82 19.3-18.87a29.35 29.35 0 0 0 5-6.45 4.87 4.87 0 0 0 1.5.72c-3.44 3.06-3.82 4.58 0 5.73-4.26 5.4-3.11 11.9 4.59 11.9s4.92-10.32 1.09-11.85z" fill="#fff"/><path d="M60 83.75c-.26-4.22-.72-8.88-2.59-12.74a1 1 0 0 0-1.55-.18c-1.68 1.61-4 1.78-5.55-.27-.59-.78-1-1.84-2.2-1.46-2 .64-1.82 3.44-4.29 3.54-1.66.06-1.17-.46-1.71-1.69a4.24 4.24 0 0 0-.83-1.34 1 1 0 0 0-1.55.24c-1.97 3.15-2.37 7.88-2.43 11.53-.08 4.41.14 8.79.22 13.2a.93.93 0 0 0-.34 1.29 6.23 6.23 0 0 1 .36.74v.8a.91.91 0 0 0 1 .93 2.48 2.48 0 0 0 1.2.53 21 21 0 0 0 6 .25c1.43-.13 2.81-.46 4.26-.51a38.19 38.19 0 0 0 4.28-.18 5.76 5.76 0 0 0 4-2.25 8 8 0 0 0 1.45-4.52 46.44 46.44 0 0 0 .27-7.91z" fill="#0068b6"/><path d="M93.61 39.06a6.44 6.44 0 0 0-2.12-1.83 1.15 1.15 0 0 0-.67-.74c.72-1.84.63-3.94-1.32-5a.83.83 0 0 0 .08-.12 3.24 3.24 0 0 0 .48-1.24 5 5 0 0 0-.2-3 3.59 3.59 0 0 0-5-1.61 5.06 5.06 0 0 0-2.64 4.67 4 4 0 0 0 .78 2.34 4.21 4.21 0 0 0-1.41 3.38c.11 1.59 1.35 2.68 2.68 3.45a9.52 9.52 0 0 0-1.2 3.31c-.49 3.78 4.38 7.51 7.91 6.38a6.52 6.52 0 0 0 3.88-4.17c.86-2.21.21-4.01-1.25-5.82zM10.5 41.24a4 4 0 0 0-.92-1.86c1-1.62 2.27-3.66.69-5.4a3.87 3.87 0 0 0-4.69-.5c-1.16.73-2.55 2.18-2.46 3.65a2.24 2.24 0 0 0 1 1.69 5.39 5.39 0 0 0-.5.33c-2.74 2.09-2.3 4.65-.29 6.46A5.58 5.58 0 0 0 0 50.15c-.23 3.36 2.72 6.85 6.25 6.48s4.85-4.76 4.11-7.72a7.44 7.44 0 0 0-1.08-2.5 1.68 1.68 0 0 0 .06-.89 5 5 0 0 0 1.16-4.28zM68.34 4.26a48.82 48.82 0 0 0-16-3.4 25.21 25.21 0 0 0-8.7.74c-2.64.88-5.41 2.28-8.13 2.75a1.17 1.17 0 0 0-.84.53A52.54 52.54 0 0 0 18 16.1c-2.61 2.48-5.14 6.15-5.37 9.83s1.73 7.68 3.64 10.74a1.47 1.47 0 0 0 2 .51c3.56-1.75 5.67-7.17 7.82-10.31 1.31-1.91 2.85-3.67 4.2-5.56.41-.58 4.87-1.7 5.6-1.63 5.64.57 11.48 0 17.14.11a77.1 77.1 0 0 0 8.6 0c3.24-.31 5.41-.94 7.86 1.73a51.76 51.76 0 0 1 4.78 6.43c.81 1.23 1.53 2.81 3.21 2.95 3.31.27 5.55-4.88 6-7.45 1.31-8.81-7.67-16.33-15.14-19.19z" fill="#00a199"/><g fill="none" stroke="#000" stroke-linecap="round" stroke-linejoin="round"><path d="M26.79 23c-5.72 15.39-7 31.22 13.19 33.86 2.63 0 3.07 3.08 3.07 9.23m24.18-46.57c17.15 17.58 8.36 31.21-10.11 36.05-3.95 2.2-2.64 7.47-2.64 9.23m-7.49-32.69l1.91-2.29 2.29 1.91M41.25 9.56c-4.2 10.32-4.58 14.91-4.58 14.91m.76-15.68c-9.94 11.86-8 19.5-8 19.5M49.28 8.41C55 16.82 55.4 22.56 55.4 22.56M53.49 6.5c6.12 5 8 14.15 8 14.15"/><path d="M23.29 45.11C-5.77 25.23 21 5 41.64.77 69.93-1.91 97.07 16.06 76.43 36.7m-38.62-1.53c3.83 4.59 17.59 5 24.85-1.53"/><path d="M10.29 29.82c-5.74.76-7.65 3.82-3.83 7.65-4.2 1.91-6.11 3.82-1.52 7.64-4.59 3.44-5 8 2.29 10.32s5.35-7.26 3.06-9.17c4.59-.77 1.53-5-.38-6.5 3.44 0 3.44-4.21 2.67-6.88m70.35-9.94c-3.45 3.44-3.83 6.88 0 8-3.45 3.06-3.83 4.58 0 5.73-4.21 5.35-3.06 11.85 4.58 11.85s5-10.32 1.15-11.85c3.44-.76 6.12-5 .38-5.73 1.91-1.53 3.06-9.94-5-10.32"/></g><path d="M32.3 33.7c-2.75 0-5.71 2.4-5.89 5.23a3.36 3.36 0 0 0 2.07 3.31 5 5 0 0 0 2.13.56 3.76 3.76 0 0 0 .75-.1c2.35-.11 4.79-.64 5.47-3.27a4.58 4.58 0 0 0-4.53-5.73zm37.88-3.21c-2-.34-4.9.48-5.48 2.67a5.41 5.41 0 0 0 .23 3.42 3.33 3.33 0 0 0 1.73 1.57c.11.6 6.2.54 6.9-1.67.79-2.48-.74-5.55-3.38-5.99z" fill="#ecb0c4"/><path d="M34.79 96.42s.93-23.44 7.07-34c1.69 1.85 7.17 4.06 12.86-.46 5.68 8.87 8.55 30.85 8.74 35.63" fill="none" stroke="#000" stroke-linecap="round" stroke-linejoin="round"/><path d="M39.57 65.26c2.29 8.41 6.69 7.26 9.17 1.14 4 6.89 9 4.59 8.79-.76" fill="none" stroke="#000" stroke-linecap="round" stroke-linejoin="round"/><circle cx="57.05" cy="27.6" r="2.17"/><circle cx="39.85" cy="29.32" r="2.17"/></svg>