<svg width="70.97" height="117.94" xmlns="http://www.w3.org/2000/svg"><path d="M70.46 47.38a4.11 4.11 0 0 0-2.18-3.51l.47-1.53C74.13 25.35 64.59 7 47.37 6.65c0 0-7.35.67-9.11 2.11A39.88 39.88 0 0 0 25 9C9.92 10.71-7.07 27.75 4.11 47.63l.15.49a3.48 3.48 0 0 0-2 2.91c-.37 5 4.19 9.12 7.63 7.6 1.54 6.84 5.55 11.33 15 14.55 4.23 2.38 6.65 3.86 7.06 11.61-1.54-1-2.58-2.23-2.69-3.27-7.72 9.26-8.1 35.89-8.1 35.89l37.43-3.09S53.16 87.69 47 81.52a9.69 9.69 0 0 1-2 3.08c0-4.17.47-9.89 3.05-12.65 5.31-5.53 13.25-9.74 15.68-18.07 3.68 1.63 6.93-3.09 6.73-6.5z" fill="#fff"/><path d="M23.7 117.81c1.06-18.66 1.41-30.27 5.63-28.87s6 4.23 9.16 2.47 2.81-8.41 8.45-4.23 9.15 28.52 9.15 28.52z" fill="#0068b6"/><path d="M39.19 10.44C12.08 5.16-9.39 36.49 5.39 42.83s42.25-18.31 42.25-18.31S62 45 67.71 39.3c6.69-6.68 0-28.16-28.52-28.86z" fill="#00a199"/><circle cx="26.2" cy="43.67" r="2.17"/><circle cx="45.5" cy="43.95" r="2.17"/><g fill="none" stroke="#000" stroke-linecap="round" stroke-linejoin="round"><path d="M32.71 44.88l-3.09 3.86 4.63.39M23.83 52.6c7.33 10.42 15.82 9.65 24.7-2.31M41.2 19.8c-17.76 8.49-24.32 22-24.32 22m35.51-16.6A80 80 0 0 0 22.67 41m0-23.52C10.32 31.37 10.32 42.57 10.32 42.57m35.89-20.84c6.56 6.56 12.35 16.21 12.35 16.21M38.11.5c3.47 3.86 3.47 7.33 3.47 7.33M31.16 1.66c5.41 3.09 7 5.79 7 5.79m9.21-.78c17.22.34 26.76 18.7 21.38 35.7M25 9C9.92 10.74-7.07 27.78 4.11 47.66m41.13 41.91S43.69 76.61 48 72c5.31-5.52 13.25-9.73 15.68-18.06 3.71 1.63 7-3.1 6.76-6.51A4.23 4.23 0 0 0 64 44a34.06 34.06 0 0 0-1.13-4.47M9.11 42.64C9 44.89 9 47 9 49c-2.51-2.44-6.54-1-6.76 2.1-.37 5 4.19 9.12 7.63 7.6 1.54 6.84 5.55 11.33 15 14.55C29.8 76 32.27 77.53 32 89.26"/><path d="M58.56 114.35S53.16 87.72 47 81.55c-4.25 10-17.37 3.85-17.76 0-7.72 9.26-8.1 35.89-8.1 35.89"/></g><path d="M18.07 44.94c-2.15-.27-4.23 1.92-4.23 4.22s2.08 4.5 4.23 4.23c1.92-.25 3.17-2.36 3.17-4.23s-1.24-3.98-3.17-4.22zm38.76-.71c-2.15-.11-4 2.39-3.8 4.65.13 1.75 1.49 3.71 3.38 3.8 2.09.11 3.77-2.13 3.8-4.22s-1.47-4.13-3.38-4.23z" fill="#ecb0c4"/></svg>