<svg width="100.42" height="141.09" xmlns="http://www.w3.org/2000/svg"><path d="M63.93 86.83a36.44 36.44 0 0 0 9.12-7.23c24.42-12 38.45-38.85 15.35-60.44C65.08-2.63 40.61-3.78 23.79 7.69c-26.66 4.57-34 50.13-1.49 66 4 7.14 10.32 11.77 17.55 14.7 5.43 2.11 5.38 11.37 5.12 15.17l-1.68-2.17c-5.35 12.23-8 29.82-8.41 38.61H80c-2.67-18.35-11.85-33.64-17.2-41.67l-2.4 3.46c-.25-3.25-.54-12.45 3.53-14.96z" fill="#fff"/><path d="M75.87 132.73c-.06-4-1.29-7.73-2.44-11.48s-2-7.55-4-11c-1.15-2-6-13-9.4-7.29-2.06 3.47-3.49 7.3-6.51 10.17-.6.56-.23.9-1.15.74s-.57-.44-1-1c-.57-.8-1-1.67-1.63-2.46-1.13-1.47-2.46-2.68-3.7-4a1.12 1.12 0 0 0-1.56 0c-1.77 1.59-2.22 4.65-3.06 6.76-1.09 2.7-1.76 5.54-2.63 8.31-1.8 5.75-2.26 12.14-2.27 18.13a1 1 0 0 0 .74 1 1.12 1.12 0 0 0 .38.09c1.85.08 3.58.39 5.45.38h7.5c4.56 0 9.1-.51 13.64-.41h5.72c1.44 0 3.71.46 5-.17 2.56-1.1.96-5.83.92-7.77z" fill="#0068b6"/><path d="M73.61 63.83c-.43-2.86-3.38-3.74-5.92-3-1.17.33-2.64.86-3.24 2a3.91 3.91 0 0 0-.19 3.14 4.91 4.91 0 0 0 5.65 2.27 5.67 5.67 0 0 0 2.94-1c.94-.86.94-2.24.76-3.41zm-41.19-3.56c-.89-2.24-3.23-3-5.47-2.85a2.31 2.31 0 0 0-2.17 1.18 6.08 6.08 0 0 0-.8 3.88 3.33 3.33 0 0 0 1.86 2.2 6.47 6.47 0 0 0 1.41.59 2.8 2.8 0 0 0 1.22 0c.12.28 2.79-.55 3.51-1.51a3.57 3.57 0 0 0 .44-3.49z" fill="#ecb0c4"/><path d="M27.34 11.65A24.75 24.75 0 0 0 2.91 24a24.76 24.76 0 0 0 2.8 27.22 7 7 0 0 0 3.91 2.66c3.19.54 5.66-2.69 7-5.61 4.12-8.75 6.1-19.06 13.39-25.39a21 21 0 0 0 21.24 14 8.28 8.28 0 0 1 3.84.12c1.5.6 2.36 2.12 3.32 3.41a16.44 16.44 0 0 0 8.41 5.93c5 1.5 11.13.89 14.53 4.84 2.69 3.13 2.38 7.86 4.27 11.53a3.66 3.66 0 0 0 1.8 1.89 3.4 3.4 0 0 0 2.35-.12c4.73-1.66 6.55-7.32 7.31-12.27.8-5.21-2.08-18-6.29-24.92S83.52 16 75 10.46c-6.66-4.3-16-10-23.93-10-10.5 0-17.55 3.94-24.62 11.71" fill="#00a199"/><path d="M18.2 45.54c-3.44 24.85 7.26 37.09 21.41 42.82 6.88 2.68 5 16.82 5 16.82M85.1 41.72C84 64.27 77.84 78.8 63.69 86.83c-5 3.06-3.44 16.06-3.44 16.06M48.02 50.13l-2.68 7.65 4.21.38" fill="none" stroke="#000" stroke-linecap="round" stroke-linejoin="round"/><circle cx="39.61" cy="50.13" r="2.17"/><circle cx="62.16" cy="51.28" r="2.17"/><g fill="none" stroke="#000" stroke-linecap="round" stroke-linejoin="round"><path d="M41.13 66.19c3.06 7.64 13 8 18.74 1.14M35.78 23.75c13 16.44 32.88 27.53 48.55 33.64M24.31 24.13c7.27 13.38 26.76 18 35.18 18"/><path d="M22.4 73.83C-10.48 58.16-3.21 12.28 23.55 7.69 40.37-3.78 64.84-2.63 88.16 19.16S97 68.1 72.1 80m7.65 60c-2.68-18.38-11.85-33.67-17.21-41.7l-19.49 3.06c-5.36 12.23-8 29.82-8.41 38.61"/></g><path d="M61.87 102.49a33.83 33.83 0 0 0-6-.07 37.13 37.13 0 0 0-6.24.18c-3.25.59-5.62 2.1-5 5.6a1 1 0 0 0 1.81.34 13.79 13.79 0 0 0 4 4.83c3.16 2.53 4.76-.19 6.64-2.61a38.15 38.15 0 0 1 3.69-4.14 4.85 4.85 0 0 0 1.88-3.11 1.08 1.08 0 0 0-.78-1.02z" fill="#0068b6"/></svg>